/* XPM */
static char * bottom_active_xpm[] = {
"5 6 3 1",
" 	c None",
".	c #0A0010",
"+	c #DCFF00",
".....",
".....",
".....",
".....",
".....",
"+++++"};
