/* XPM */
static char * bottom_left_active_xpm[] = {
"16 16 3 1",
" 	c None",
".	c #DCFF00",
"+	c #0A0010",
".+++++++++++++++",
".+++++++++++++++",
".+++++++++++++++",
".+++++++++++++++",
".+++++++++++++++",
".+++++++++++++++",
".+++++++++++++++",
".+++++++++++++++",
".+++++++++++++++",
".+++++++++++++++",
".+++++++++++++++",
".+++++++++++++++",
".+++++++++++++++",
".+++++++++++++++",
".+++++++++++++++",
"................"};
