/* XPM */
static char * bottom_right_inactive_xpm[] = {
"16 16 3 1",
" 	c None",
".	c #0A0010",
"+	c #6F1497",
"...............+",
"...............+",
"...............+",
"...............+",
"...............+",
"...............+",
"...............+",
"...............+",
"...............+",
"...............+",
"...............+",
"...............+",
"...............+",
"...............+",
"...............+",
"++++++++++++++++"};
