/* XPM */
static char * close_prelight_xpm[] = {
"28 26 239 2",
"  	c None",
". 	c #4F4F4F",
"+ 	c #464646",
"@ 	c #434343",
"# 	c #414141",
"$ 	c #3D3D3D",
"% 	c #6A439A",
"& 	c #6F47A7",
"* 	c #704BAB",
"= 	c #7D50B8",
"- 	c #824DC8",
"; 	c #874ED4",
"> 	c #8B4EE0",
", 	c #8F50E8",
"' 	c #8B4EE8",
") 	c #8A4EE8",
"! 	c #8A4DE8",
"~ 	c #8B4DDF",
"{ 	c #7D50B9",
"] 	c #754DAC",
"^ 	c #7047A9",
"/ 	c #6E449E",
"( 	c #3B3B3B",
"_ 	c #6333A8",
": 	c #6734B4",
"< 	c #6E3ABC",
"[ 	c #7341BA",
"} 	c #7B44C4",
"| 	c #7D44D1",
"1 	c #8143DC",
"2 	c #8644E5",
"3 	c #8343E8",
"4 	c #8344E8",
"5 	c #8944E5",
"6 	c #8543DC",
"7 	c #7F44D0",
"8 	c #7343B9",
"9 	c #7039BE",
"0 	c #6735B6",
"a 	c #6833AE",
"b 	c #393939",
"c 	c #602EA6",
"d 	c #662EB6",
"e 	c #6B31C0",
"f 	c #7036C4",
"g 	c #733FC0",
"h 	c #7941CC",
"i 	c #7D40D5",
"j 	c #8340DE",
"k 	c #823DE5",
"l 	c #8540E7",
"m 	c #743CC3",
"n 	c #6D34C0",
"o 	c #642FB9",
"p 	c #5D2DA9",
"q 	c #363636",
"r 	c #5727A4",
"s 	c #5F25B7",
"t 	c #682AC2",
"u 	c #6D2EC7",
"v 	c #7032C9",
"w 	c #763AC4",
"x 	c #7C3BCF",
"y 	c #7E3AD7",
"z 	c #8439DE",
"A 	c #8039DE",
"B 	c #7F39D9",
"C 	c #7034C6",
"D 	c #6E2EC9",
"E 	c #6728C3",
"F 	c #5E25BD",
"G 	c #5827A8",
"H 	c #333333",
"I 	c #5424A1",
"J 	c #5D22B5",
"K 	c #6622C3",
"L 	c #6825C9",
"M 	c #6E2BCD",
"N 	c #7532CE",
"O 	c #7637C7",
"P 	c #7B38D0",
"Q 	c #7F37D5",
"R 	c #8238D7",
"S 	c #8337D9",
"T 	c #7637C8",
"U 	c #6E2CCE",
"V 	c #6723C4",
"W 	c #5D22B6",
"X 	c #5624A6",
"Y 	c #323232",
"Z 	c #511FA0",
"` 	c #5B1EAF",
" .	c #631DC2",
"..	c #651ECA",
"+.	c #6920CE",
"@.	c #7125D3",
"#.	c #00FFDC",
"$.	c #009883",
"%.	c #7B34CC",
"&.	c #7F34D1",
"*.	c #7B33CD",
"=.	c #7626D4",
"-.	c #6A21CE",
";.	c #671FCC",
">.	c #641CC3",
",.	c #5D1EB4",
"'.	c #511FA2",
").	c #521D9F",
"!.	c #5619AB",
"~.	c #5C19BC",
"{.	c #6419C9",
"].	c #6C1AD0",
"^.	c #731CD5",
"/.	c #7C2AD1",
"(.	c #812FD0",
"_.	c #741DD6",
":.	c #6F1BD3",
"<.	c #6319CA",
"[.	c #5C19BE",
"}.	c #5619B1",
"|.	c #501DA1",
"1.	c #2D2D2D",
"2.	c #4E1A9B",
"3.	c #5118A7",
"4.	c #5818B6",
"5.	c #5C16C5",
"6.	c #6915CE",
"7.	c #7318D6",
"8.	c #7819DA",
"9.	c #7419D8",
"0.	c #6815CF",
"a.	c #6315C8",
"b.	c #5316B8",
"c.	c #5218AB",
"d.	c #5019A1",
"e.	c #151515",
"f.	c #49159B",
"g.	c #5313A8",
"h.	c #5313B2",
"i.	c #5B12BF",
"j.	c #6513CB",
"k.	c #6F12D5",
"l.	c #7314DA",
"m.	c #7A18DC",
"n.	c #6613CD",
"o.	c #5913C1",
"p.	c #5813B5",
"q.	c #5414A7",
"r.	c #4B159D",
"s.	c #020202",
"t.	c #440D97",
"u.	c #4E0DA7",
"v.	c #550DB4",
"w.	c #5B0DBA",
"x.	c #660BC9",
"y.	c #750BD0",
"z.	c #7F0ADA",
"A.	c #840AE1",
"B.	c #790AD5",
"C.	c #660BCB",
"D.	c #610DBD",
"E.	c #4C0DA7",
"F.	c #470D9D",
"G.	c #010101",
"H.	c #470B95",
"I.	c #4F0AA1",
"J.	c #5B0AAF",
"K.	c #5B07B9",
"L.	c #6607C4",
"M.	c #7106CD",
"N.	c #7A06D4",
"O.	c #7F06D4",
"P.	c #7106CE",
"Q.	c #6907C7",
"R.	c #6407BD",
"S.	c #5D0AB2",
"T.	c #510AA5",
"U.	c #4C0B9A",
"V.	c #470A91",
"W.	c #4F0A9F",
"X.	c #540AAA",
"Y.	c #5B07B3",
"Z.	c #6507BE",
"`.	c #6E06C7",
" +	c #8106D5",
".+	c #7E05D9",
"++	c #6607C0",
"@+	c #5C07B6",
"#+	c #5807AD",
"$+	c #4A0A94",
"%+	c #420B8A",
"&+	c #4C0B98",
"*+	c #500AA3",
"=+	c #5E07B8",
"-+	c #6A06C0",
";+	c #7906D1",
">+	c #7806CF",
",+	c #6806C3",
"'+	c #6107B9",
")+	c #5C07B2",
"!+	c #530AA7",
"~+	c #4D0B9D",
"{+	c #450B91",
"]+	c #400B87",
"^+	c #480B91",
"/+	c #5208A8",
"(+	c #6806C4",
"_+	c #7106CB",
":+	c #6D06C5",
"<+	c #5708AB",
"[+	c #410B89",
"}+	c #3D0B81",
"|+	c #4B0B95",
"1+	c #5308AB",
"2+	c #5807B2",
"3+	c #6906C5",
"4+	c #0B0B00",
"5+	c #370B7E",
"6+	c #5407AC",
"7+	c #5F07BE",
"8+	c #4D0A9E",
"9+	c #0E1100",
"0+	c #3B0C79",
"a+	c #390B81",
"b+	c #470B93",
"c+	c #510AA4",
"d+	c #5607B3",
"e+	c #430B8C",
"f+	c #3C0B7D",
"g+	c #0E1001",
"h+	c #390D76",
"i+	c #450B8F",
"j+	c #460B98",
"k+	c #5407AD",
"l+	c #3B0B82",
"m+	c #3A0C78",
"n+	c #0C0B09",
"o+	c #080013",
"p+	c #DCFF00",
". . . . . . . . . . . . . . . . . . . . . . . . . . . . ",
"+ + + + + + + + + + + + + + + + + + + + + + + + + + + + ",
"@ @ @ @ @ @ @ @ @ @ @ @ @ @ @ @ @ @ @ @ @ @ @ @ @ @ @ @ ",
"# # # # # # # # # # # # # # # # # # # # # # # # # # # # ",
"$ $ $ $ % & * = - ; > , ' ) ) ! , ~ ; - { ] ^ / $ $ $ $ ",
"( ( ( ( _ : < [ } | 1 2 3 4 4 3 5 6 7 } 8 9 0 a ( ( ( ( ",
"b b b b c d e f g h i j k l l k j i h m f n o p b b b b ",
"q q q q r s t u v w x y z A z z B x w C D E F G q q q q ",
"H H H H I J K L M N O P Q R S Q P T N U L V W X H H H H ",
"Y Y Y Y Z `  ...+.@.#.$.%.&.&.*.$.#.=.-.;.>.,.'.Y Y Y Y ",
"Y Y Y Y ).!.~.{.].^.$.#.$./.(.$.#.$._.:.<.[.}.|.Y Y Y Y ",
"1.1.1.1.2.3.4.5.6.7.8.$.#.$.$.#.$.8.9.0.a.b.c.d.1.1.1.1.",
"e.e.e.e.f.g.h.i.j.k.l.m.$.#.#.$.m.l.k.n.o.p.q.r.e.e.e.e.",
"s.s.s.s.t.u.v.w.x.y.z.A.$.#.#.$.A.z.B.C.D.v.E.F.s.s.s.s.",
"G.G.G.G.H.I.J.K.L.M.N.$.#.$.$.#.$.O.P.Q.R.S.T.U.G.G.G.G.",
"G.G.G.G.V.W.X.Y.Z.`.$.#.$. +.+$.#.$.`.++@+#+W.$+G.G.G.G.",
"G.G.G.G.%+&+*+#+=+-+#.$.;+;+;+>+$.#.,+'+)+!+~+{+G.G.G.G.",
"G.G.G.G.]+^+~+/+)+'+++(+`._+_+_+:+++'+Y.<+I.H.[+G.G.G.G.",
"G.G.G.G.}+[+|+I.1+2+@+Z.(+3+3+(+Z.'+Y.#+*+~+^+]+G.G.G.G.",
"4+4+4+4+5+]+{+U.*+6+2+@+=+7+7+'+@+)+#+T.8+H.[+}+4+4+4+4+",
"9+9+9+9+0+a+[+b+~+c+1+#+)+Y.d+)+)+6+c+8+H.e+]+f+9+9+9+9+",
"g+g+g+g+h+f+]+i+j+8+c+<+k+k+k+k+<+c+I.U.{+[+l+m+g+g+g+g+",
"n+n+n+n+n+n+n+n+n+n+n+n+n+n+n+n+n+n+n+n+n+n+n+n+n+n+n+n+",
"o+o+o+o+o+o+o+o+o+o+o+o+o+o+o+o+o+o+o+o+o+o+o+o+o+o+o+o+",
"o+o+o+o+o+o+o+o+o+o+o+o+o+o+o+o+o+o+o+o+o+o+o+o+o+o+o+o+",
"p+p+p+p+p+p+p+p+p+p+p+p+p+p+p+p+p+p+p+p+p+p+p+p+p+p+p+p+"};
