/* XPM */
static char * close_inactive_xpm[] = {
"28 26 35 1",
" 	c None",
".	c #525252",
"+	c #484848",
"@	c #454545",
"#	c #434343",
"$	c #3F3F3F",
"%	c #545454",
"&	c #3D3D3D",
"*	c #4F4F4F",
"=	c #3B3B3B",
"-	c #383838",
";	c #353535",
">	c #424242",
",	c #333333",
"'	c #414141",
")	c #00FFDC",
"!	c #009883",
"~	c #2E2E2E",
"{	c #323232",
"]	c #151515",
"^	c #222222",
"/	c #010101",
"(	c #131313",
"_	c #000000",
":	c #0B0B0B",
"<	c #0A0A0A",
"[	c #0E0B0A",
"}	c #120C0A",
"|	c #170F0B",
"1	c #080000",
"2	c #161214",
"3	c #0C1000",
"4	c #6F1497",
"5	c #0C0B08",
"6	c #090012",
"............................",
"++++++++++++++++++++++++++++",
"@@@@@@@@@@@@@@@@@@@@@@@@@@@@",
"############################",
"$$$$%%%%%%%%%%%%%%%%%%%%$$$$",
"&&&&********************&&&&",
"====++++++++++++++++++++====",
"----@@@@@@@@@@@@@@@@@@@@----",
";;;;>>>>>>>>>>>>>>>>>>>>;;;;",
",,,,'''''')!''''!)'''''',,,,",
",,,,&&&&&&!)!&&!)!&&&&&&,,,,",
"~~~~{{{{{{{!)!!)!{{{{{{{~~~~",
"]]]]^^^^^^^^!))!^^^^^^^^]]]]",
"////((((((((!))!((((((((////",
"____:::::::!)!!)!:::::::____",
"____<<<<<<!)!<<!)!<<<<<<____",
"____[[[[[[)![[[[!)[[[[[[____",
"____}}}}}}}}}}}}}}}}}}}}____",
"____||||||||||||||||||||____",
"1111222222222222222222221111",
"3333222222222222222222223333",
"3333444444444444444444443333",
"5555555555555555555555555555",
"6666666666666666666666666666",
"6666666666666666666666666666",
"))))))))))))))))))))))))))))"};
