/* XPM */
static char * hide_active_xpm[] = {
"28 26 40 1",
" 	c None",
".	c #535154",
"+	c #49474B",
"@	c #464448",
"#	c #454246",
"$	c #413F43",
"%	c #545356",
"&	c #3F3D41",
"*	c #504E51",
"=	c #3D3B3F",
"-	c #3B383C",
";	c #38353A",
">	c #444145",
",	c #363338",
"'	c #434044",
")	c #322E34",
"!	c #353237",
"~	c #1D1721",
"{	c #27232A",
"]	c #110616",
"^	c #1C1620",
"/	c #100516",
"(	c #170F1B",
"_	c #19111D",
":	c #160E1B",
"<	c #130918",
"[	c #9BB400",
"}	c #DCFF00",
"|	c #18111B",
"1	c #140C18",
"2	c #19161B",
"3	c #150D18",
"4	c #1B1A1B",
"5	c #150E15",
"6	c #1E171F",
"7	c #171215",
"8	c #6F1497",
"9	c #170E19",
"0	c #15041E",
"a	c #15041F",
"............................",
"++++++++++++++++++++++++++++",
"@@@@@@@@@@@@@@@@@@@@@@@@@@@@",
"############################",
"$$$$%%%%%%%%%%%%%%%%%%%%$$$$",
"&&&&********************&&&&",
"====++++++++++++++++++++====",
"----@@@@@@@@@@@@@@@@@@@@----",
";;;;>>>>>>>>>>>>>>>>>>>>;;;;",
",,,,'''''''''''''''''''',,,,",
",,,,&&&&&&&&&&&&&&&&&&&&,,,,",
"))))!!!!!!!!!!!!!!!!!!!!))))",
"~~~~{{{{{{{{{{{{{{{{{{{{~~~~",
"]]]]^^^^^^^^^^^^^^^^^^^^]]]]",
"////((((____________((((////",
"////::::<[}}}}}}}}[<::::////",
"////||||1[}}}}}}}}[1||||////",
"////22223333333333332222////",
"////44444444444444444444////",
"5555666666666666666666665555",
"7777666666666666666666667777",
"7777888888888888888888887777",
"9999999999999999999999999999",
"0000000000000000000000000000",
"aaaaaaaaaaaaaaaaaaaaaaaaaaaa",
"}}}}}}}}}}}}}}}}}}}}}}}}}}}}"};
