/* XPM */
static char * hide_prelight_xpm[] = {
"28 26 255 2",
"  	c None",
". 	c #4F4D50",
"+ 	c #464448",
"@ 	c #444145",
"# 	c #3E3C40",
"$ 	c #3A373B",
"% 	c #6A439A",
"& 	c #6F47A7",
"* 	c #704BAB",
"= 	c #7D50B8",
"- 	c #824DC8",
"; 	c #874ED4",
"> 	c #8B4EE0",
", 	c #8F50E8",
"' 	c #8B4EE8",
") 	c #8A4EE8",
"! 	c #8A4DE8",
"~ 	c #8B4DDF",
"{ 	c #7D50B9",
"] 	c #754DAC",
"^ 	c #7047A9",
"/ 	c #6E449D",
"( 	c #3C3A3E",
"_ 	c #6333A8",
": 	c #6734B4",
"< 	c #6E3ABC",
"[ 	c #7241B9",
"} 	c #7B44C4",
"| 	c #7D44D1",
"1 	c #8143DC",
"2 	c #8644E5",
"3 	c #8343E8",
"4 	c #8344E8",
"5 	c #8944E5",
"6 	c #8543DC",
"7 	c #7F44D0",
"8 	c #7343B9",
"9 	c #7039BE",
"0 	c #6735B6",
"a 	c #6833AE",
"b 	c #3B383C",
"c 	c #602EA6",
"d 	c #662EB6",
"e 	c #6B31C0",
"f 	c #7036C4",
"g 	c #7640C4",
"h 	c #7941CC",
"i 	c #7D40D5",
"j 	c #8340DE",
"k 	c #823DE5",
"l 	c #8540E7",
"m 	c #743CC3",
"n 	c #6D34C0",
"o 	c #642FB9",
"p 	c #5D2DA9",
"q 	c #38353A",
"r 	c #5727A4",
"s 	c #5F25B7",
"t 	c #682AC2",
"u 	c #6D2EC7",
"v 	c #7032C9",
"w 	c #763AC4",
"x 	c #7C3BCF",
"y 	c #7E3AD7",
"z 	c #8439DE",
"A 	c #8039DE",
"B 	c #7F39D9",
"C 	c #7034C6",
"D 	c #6E2EC9",
"E 	c #6728C3",
"F 	c #5E25BD",
"G 	c #5827A8",
"H 	c #353237",
"I 	c #5424A1",
"J 	c #5D22B5",
"K 	c #6622C3",
"L 	c #6825C9",
"M 	c #6E2BCD",
"N 	c #7532CE",
"O 	c #7637C7",
"P 	c #7B38D0",
"Q 	c #7F37D5",
"R 	c #8238D7",
"S 	c #8337D9",
"T 	c #7637C8",
"U 	c #6E2CCE",
"V 	c #6723C4",
"W 	c #5D22B6",
"X 	c #5624A6",
"Y 	c #343136",
"Z 	c #511FA0",
"` 	c #5B1EAF",
" .	c #631DC2",
"..	c #651ECA",
"+.	c #6920CE",
"@.	c #7125D3",
"#.	c #7B2DD2",
"$.	c #7A36C9",
"%.	c #7B34CC",
"&.	c #7F34D1",
"*.	c #7B33CD",
"=.	c #7834CA",
"-.	c #7626D3",
";.	c #6A21CE",
">.	c #671FCC",
",.	c #641CC3",
"'.	c #5D1EB4",
").	c #511FA2",
"!.	c #521D9F",
"~.	c #5619AB",
"{.	c #5C19BC",
"].	c #6419C9",
"^.	c #6C1AD0",
"/.	c #731CD5",
"(.	c #7C21D9",
"_.	c #7E26DA",
":.	c #8129D4",
"<.	c #7C2AD1",
"[.	c #812FD0",
"}.	c #741DD6",
"|.	c #6F1BD3",
"1.	c #6319CA",
"2.	c #5C19BE",
"3.	c #5619B1",
"4.	c #501DA1",
"5.	c #302C32",
"6.	c #4E1A9B",
"7.	c #5118A7",
"8.	c #5818B6",
"9.	c #5C16C5",
"0.	c #6915CE",
"a.	c #7318D6",
"b.	c #7819DA",
"c.	c #7B1CDB",
"d.	c #821FDD",
"e.	c #8320DF",
"f.	c #821FDE",
"g.	c #7E1CDB",
"h.	c #7419D8",
"i.	c #6815CF",
"j.	c #6315C8",
"k.	c #5316B8",
"l.	c #5218AB",
"m.	c #5019A1",
"n.	c #1D1620",
"o.	c #49159B",
"p.	c #5313A8",
"q.	c #5313B2",
"r.	c #5B12BF",
"s.	c #6513CB",
"t.	c #6F12D5",
"u.	c #7314DA",
"v.	c #7A18DC",
"w.	c #7A16DE",
"x.	c #7F18DE",
"y.	c #6613CD",
"z.	c #5913C1",
"A.	c #5813B5",
"B.	c #5414A7",
"C.	c #491599",
"D.	c #110616",
"E.	c #440D97",
"F.	c #4E0DA7",
"G.	c #550DB4",
"H.	c #5B0DBA",
"I.	c #660BC9",
"J.	c #750BD0",
"K.	c #7F0ADA",
"L.	c #840AE1",
"M.	c #7E0AE3",
"N.	c #860AE5",
"O.	c #790AD5",
"P.	c #660BCB",
"Q.	c #610DBD",
"R.	c #4C0DA7",
"S.	c #450D98",
"T.	c #100516",
"U.	c #470B95",
"V.	c #4F0AA1",
"W.	c #5B0AAF",
"X.	c #5B07B9",
"Y.	c #6607C4",
"Z.	c #7106CD",
"`.	c #7A06D4",
" +	c #8306DB",
".+	c #8606DF",
"++	c #8706E1",
"@+	c #8406DD",
"#+	c #7F06D4",
"$+	c #7106CE",
"%+	c #6907C7",
"&+	c #6407BD",
"*+	c #5D0AB2",
"=+	c #510AA5",
"-+	c #4A0B95",
";+	c #470A91",
">+	c #4F0A9F",
",+	c #540AAA",
"'+	c #5C07B4",
")+	c #6507BE",
"!+	c #009883",
"~+	c #00FFDC",
"{+	c #6607C0",
"]+	c #5C07B6",
"^+	c #5807AD",
"/+	c #4E0A9D",
"(+	c #4A0A94",
"_+	c #420B8A",
":+	c #4C0B98",
"<+	c #500AA3",
"[+	c #5E07B8",
"}+	c #6107B9",
"|+	c #5C07B2",
"1+	c #530AA7",
"2+	c #4B0A98",
"3+	c #450B91",
"4+	c #400B87",
"5+	c #480B91",
"6+	c #4D0B9D",
"7+	c #5208A8",
"8+	c #6806C4",
"9+	c #6E06C7",
"0+	c #7106CB",
"a+	c #6D06C5",
"b+	c #5708AB",
"c+	c #410B89",
"d+	c #3D0B81",
"e+	c #4B0B95",
"f+	c #5308AB",
"g+	c #5807B2",
"h+	c #6906C5",
"i+	c #160E15",
"j+	c #370B7E",
"k+	c #4C0B9A",
"l+	c #5407AC",
"m+	c #5F07BE",
"n+	c #4B099A",
"o+	c #181315",
"p+	c #3B0C79",
"q+	c #390B81",
"r+	c #470B93",
"s+	c #510AA4",
"t+	c #5607B4",
"u+	c #430B8C",
"v+	c #3C0B7D",
"w+	c #181216",
"x+	c #390D76",
"y+	c #450B8F",
"z+	c #460B98",
"A+	c #4D0A9E",
"B+	c #5407AD",
"C+	c #3B0B82",
"D+	c #170E1A",
"E+	c #15041F",
"F+	c #DCFF00",
". . . . . . . . . . . . . . . . . . . . . . . . . . . . ",
"+ + + + + + + + + + + + + + + + + + + + + + + + + + + + ",
"@ @ @ @ @ @ @ @ @ @ @ @ @ @ @ @ @ @ @ @ @ @ @ @ @ @ @ @ ",
"# # # # # # # # # # # # # # # # # # # # # # # # # # # # ",
"$ $ $ $ % & * = - ; > , ' ) ) ! , ~ ; - { ] ^ / $ $ $ $ ",
"( ( ( ( _ : < [ } | 1 2 3 4 4 3 5 6 7 } 8 9 0 a ( ( ( ( ",
"b b b b c d e f g h i j k l l k j i h m f n o p b b b b ",
"q q q q r s t u v w x y z A z z B x w C D E F G q q q q ",
"H H H H I J K L M N O P Q R S Q P T N U L V W X H H H H ",
"Y Y Y Y Z `  ...+.@.#.$.%.&.&.*.=.#.-.;.>.,.'.).Y Y Y Y ",
"Y Y Y Y !.~.{.].^./.(._.:.<.[.:._.(.}.|.1.2.3.4.Y Y Y Y ",
"5.5.5.5.6.7.8.9.0.a.b.c.d.e.e.f.g.b.h.i.j.k.l.m.5.5.5.5.",
"n.n.n.n.o.p.q.r.s.t.u.v.w.x.x.w.v.u.t.y.z.A.B.C.n.n.n.n.",
"D.D.D.D.E.F.G.H.I.J.K.L.M.N.N.L.L.K.O.P.Q.G.R.S.D.D.D.D.",
"T.T.T.T.U.V.W.X.Y.Z.`. + +.+++@+ +#+$+%+&+*+=+-+T.T.T.T.",
"T.T.T.T.;+>+,+'+)+!+~+~+~+~+~+~+~+~+!+{+]+^+/+(+T.T.T.T.",
"T.T.T.T._+:+<+^+[+!+~+~+~+~+~+~+~+~+!+}+|+1+2+3+T.T.T.T.",
"T.T.T.T.4+5+6+7+|+}+{+8+9+0+0+0+a+{+}+'+b+V.U.c+T.T.T.T.",
"T.T.T.T.d+c+e+V.f+g+]+)+8+h+h+8+)+}+'+^+<+2+5+4+T.T.T.T.",
"i+i+i+i+j+4+3+k+<+l+g+]+[+m+m+}+]+|+^+=+n+U.c+d+i+i+i+i+",
"o+o+o+o+p+q+c+r+6+s+f+^+|+'+t+|+|+l+s+n+U.u+4+v+o+o+o+o+",
"w+w+w+w+x+v+4+y+z+A+s+b+B+B+B+B+b+s+V.-+3+c+C+p+w+w+w+w+",
"D+D+D+D+D+D+D+D+D+D+D+D+D+D+D+D+D+D+D+D+D+D+D+D+D+D+D+D+",
"E+E+E+E+E+E+E+E+E+E+E+E+E+E+E+E+E+E+E+E+E+E+E+E+E+E+E+E+",
"E+E+E+E+E+E+E+E+E+E+E+E+E+E+E+E+E+E+E+E+E+E+E+E+E+E+E+E+",
"F+F+F+F+F+F+F+F+F+F+F+F+F+F+F+F+F+F+F+F+F+F+F+F+F+F+F+F+"};
