/* XPM */
static char * maximize_toggled_inactive_xpm[] = {
"28 26 46 1",
" 	c None",
".	c #525053",
"+	c #48464A",
"@	c #464347",
"#	c #444145",
"$	c #403E42",
"%	c #535255",
"&	c #3E3C40",
"*	c #4F4D50",
"=	c #3C3A3E",
"-	c #3A373B",
";	c #373439",
">	c #434044",
",	c #353237",
"'	c #423F43",
")	c #474549",
"!	c #464448",
"~	c #00FFDC",
"{	c #312D33",
"]	c #343136",
"^	c #3B393D",
"/	c #1D1620",
"(	c #272229",
"_	c #333035",
":	c #363338",
"<	c #100516",
"[	c #1B151F",
"}	c #2A262C",
"|	c #100415",
"1	c #160E1B",
"2	c #252028",
"3	c #160D1A",
"4	c #231F26",
"5	c #180E1A",
"6	c #150B19",
"7	c #1D1520",
"8	c #1B0F1A",
"9	c #1E111B",
"0	c #150415",
"a	c #1D1420",
"b	c #171215",
"c	c #1D161E",
"d	c #6F1497",
"e	c #170E19",
"f	c #15041E",
"g	c #15041F",
"............................",
"++++++++++++++++++++++++++++",
"@@@@@@@@@@@@@@@@@@@@@@@@@@@@",
"############################",
"$$$$%%%%%%%%%%%%%%%%%%%%$$$$",
"&&&&********************&&&&",
"====++++++++++++++++++++====",
"----@@@@@@@@@@@@@@@@@@@@----",
";;;;>>>>>>>>>>>>>>>>>>>>;;;;",
",,,,''''''&)!!!!)&'''''',,,,",
",,,,&&&&&&#~~~~~~#&&&&&&,,,,",
"{{{{]]]]]]^~~~~~~^]]]]]]{{{{",
"////((((((_~~::~~_((((((////",
"<<<<[[[[[[}~~}}~~}[[[[[[<<<<",
"||||1111112~~~~~~2111111||||",
"||||3333334~~~~~~4333333||||",
"||||5555556/7777/6555555||||",
"||||88888888888888888888||||",
"||||99999999999999999999||||",
"0000aaaaaaaaaaaaaaaaaaaa0000",
"bbbbccccccccccccccccccccbbbb",
"bbbbddddddddddddddddddddbbbb",
"eeeeeeeeeeeeeeeeeeeeeeeeeeee",
"ffffffffffffffffffffffffffff",
"gggggggggggggggggggggggggggg",
"~~~~~~~~~~~~~~~~~~~~~~~~~~~~"};
