/* XPM */
static char * maximize_pressed_xpm[] = {
"28 26 47 1",
" 	c None",
".	c #525053",
"+	c #48464A",
"@	c #464347",
"#	c #444145",
"$	c #403E42",
"%	c #535255",
"&	c #3E3C40",
"*	c #4F4D50",
"=	c #3C3A3E",
"-	c #3A373B",
";	c #373439",
">	c #434044",
",	c #353237",
"'	c #423F43",
")	c #00FFDC",
"!	c #38353A",
"~	c #312D33",
"{	c #343136",
"]	c #322E34",
"^	c #1D1620",
"/	c #272229",
"(	c #29252C",
"_	c #39363B",
":	c #100516",
"<	c #1B151F",
"[	c #201B24",
"}	c #2C282E",
"|	c #100415",
"1	c #160E1B",
"2	c #1C1620",
"3	c #231F26",
"4	c #160D1A",
"5	c #19121D",
"6	c #17101A",
"7	c #1A131D",
"8	c #19141A",
"9	c #140C18",
"0	c #1B191A",
"a	c #140C15",
"b	c #1D161E",
"c	c #171215",
"d	c #6F1497",
"e	c #170E19",
"f	c #15041E",
"g	c #15041F",
"h	c #DCFF00",
"............................",
"++++++++++++++++++++++++++++",
"@@@@@@@@@@@@@@@@@@@@@@@@@@@@",
"############################",
"$$$$%%%%%%%%%%%%%%%%%%%%$$$$",
"&&&&********************&&&&",
"====++++++++++++++++++++====",
"----@@@@@@@@@@@@@@@@@@@@----",
";;;;>>>>>&&&&&&&&&&>>>>>;;;;",
",,,,'''''=))))))))=''''',,,,",
",,,,&&&&&!))))))))!&&&&&,,,,",
"~~~~{{{{{])){{{{))]{{{{{~~~~",
"^^^^/////())____))(/////^^^^",
"::::<<<<<[))}}}}))[<<<<<::::",
"||||111112))3333))211111||||",
"||||444445))))))))544444||||",
"||||666667))))))))766666||||",
"||||88888999999999988888||||",
"||||00000000000000000000||||",
"aaaabbbbbbbbbbbbbbbbbbbbaaaa",
"ccccbbbbbbbbbbbbbbbbbbbbcccc",
"ccccddddddddddddddddddddcccc",
"eeeeeeeeeeeeeeeeeeeeeeeeeeee",
"ffffffffffffffffffffffffffff",
"gggggggggggggggggggggggggggg",
"hhhhhhhhhhhhhhhhhhhhhhhhhhhh"};
