/* XPM */
static char * maximize_toggled_prelight_xpm[] = {
"28 26 241 2",
"  	c None",
". 	c #4F4D50",
"+ 	c #464448",
"@ 	c #444145",
"# 	c #423F43",
"$ 	c #3E3C40",
"% 	c #6F46A2",
"& 	c #744AAF",
"* 	c #764FB3",
"= 	c #8354C1",
"- 	c #824DC8",
"; 	c #864DD4",
"> 	c #8B4EE0",
", 	c #8F50E8",
"' 	c #8B4EE8",
") 	c #8A4EE8",
"! 	c #8A4DE8",
"~ 	c #8B4DDF",
"{ 	c #8354C2",
"] 	c #7B51B5",
"^ 	c #764BB1",
"/ 	c #7347A5",
"( 	c #3C3A3E",
"_ 	c #6333A8",
": 	c #6734B4",
"< 	c #6E3ABC",
"[ 	c #7844C2",
"} 	c #7B44C4",
"| 	c #7D44D1",
"1 	c #8143DC",
"2 	c #8644E5",
"3 	c #8343E8",
"4 	c #8344E8",
"5 	c #8944E5",
"6 	c #8543DC",
"7 	c #7F44D0",
"8 	c #7946C2",
"9 	c #7039BE",
"0 	c #6735B6",
"a 	c #6833AE",
"b 	c #3B383C",
"c 	c #602EA6",
"d 	c #662EB6",
"e 	c #6B31C0",
"f 	c #7036C4",
"g 	c #7640C4",
"h 	c #7941CC",
"i 	c #7D40D5",
"j 	c #8340DE",
"k 	c #823DE5",
"l 	c #8540E7",
"m 	c #743CC3",
"n 	c #6D34C0",
"o 	c #642FB9",
"p 	c #5D2DA9",
"q 	c #38353A",
"r 	c #5727A4",
"s 	c #5F25B7",
"t 	c #682AC2",
"u 	c #6D2EC7",
"v 	c #7032C9",
"w 	c #763AC4",
"x 	c #7C3BCF",
"y 	c #7E3AD7",
"z 	c #8439DE",
"A 	c #8039DE",
"B 	c #7F39D9",
"C 	c #7034C6",
"D 	c #6E2EC9",
"E 	c #6728C3",
"F 	c #5E25BD",
"G 	c #5827A8",
"H 	c #353237",
"I 	c #5424A1",
"J 	c #5D22B5",
"K 	c #6622C3",
"L 	c #6825C9",
"M 	c #6E2BCD",
"N 	c #7532CE",
"O 	c #7637C7",
"P 	c #7B38D0",
"Q 	c #7F37D5",
"R 	c #8238D7",
"S 	c #8337D9",
"T 	c #7637C8",
"U 	c #6E2CCE",
"V 	c #6723C4",
"W 	c #5D22B6",
"X 	c #5624A6",
"Y 	c #343136",
"Z 	c #511FA0",
"` 	c #5B1EAF",
" .	c #631DC2",
"..	c #651ECA",
"+.	c #6920CE",
"@.	c #7125D3",
"#.	c #7B2DD2",
"$.	c #7A36C9",
"%.	c #7B34CC",
"&.	c #7F34D1",
"*.	c #7B33CD",
"=.	c #7834CA",
"-.	c #7626D3",
";.	c #6A21CE",
">.	c #671FCC",
",.	c #641CC3",
"'.	c #5D1EB4",
").	c #511FA2",
"!.	c #521D9F",
"~.	c #5619AB",
"{.	c #5B19BC",
"].	c #6419C9",
"^.	c #6C1AD0",
"/.	c #731CD5",
"(.	c #7C21D9",
"_.	c #00FFDC",
":.	c #741DD6",
"<.	c #6F1BD3",
"[.	c #6319CA",
"}.	c #5B19BE",
"|.	c #5619B1",
"1.	c #501DA1",
"2.	c #302C32",
"3.	c #4E1A9B",
"4.	c #5118A7",
"5.	c #5818B6",
"6.	c #5C16C5",
"7.	c #6915CE",
"8.	c #7318D6",
"9.	c #7819DA",
"0.	c #7419D8",
"a.	c #6815CF",
"b.	c #6315C8",
"c.	c #5316B8",
"d.	c #5218AB",
"e.	c #5019A1",
"f.	c #1D1620",
"g.	c #49159B",
"h.	c #5313A8",
"i.	c #5313B2",
"j.	c #5B12BF",
"k.	c #6513CB",
"l.	c #6F12D5",
"m.	c #7314DA",
"n.	c #7F18DE",
"o.	c #6613CD",
"p.	c #5913C1",
"q.	c #5813B5",
"r.	c #5414A7",
"s.	c #4B159D",
"t.	c #110616",
"u.	c #440D97",
"v.	c #4E0DA7",
"w.	c #550DB4",
"x.	c #5B0DBA",
"y.	c #660BC9",
"z.	c #750BD0",
"A.	c #7F0ADA",
"B.	c #860AE5",
"C.	c #790AD5",
"D.	c #660BCB",
"E.	c #610DBD",
"F.	c #4C0DA7",
"G.	c #470D9D",
"H.	c #100516",
"I.	c #470B95",
"J.	c #4F0AA1",
"K.	c #5B0AAF",
"L.	c #5B07B9",
"M.	c #6607C4",
"N.	c #7106CD",
"O.	c #7A06D4",
"P.	c #7F06D4",
"Q.	c #7106CE",
"R.	c #6907C7",
"S.	c #6407BD",
"T.	c #5D0AB2",
"U.	c #510AA5",
"V.	c #4C0B9A",
"W.	c #470A91",
"X.	c #4F0A9F",
"Y.	c #540AAA",
"Z.	c #5C07B4",
"`.	c #6507BE",
" +	c #6E06C7",
".+	c #7206CE",
"++	c #7306CF",
"@+	c #6607C0",
"#+	c #5C07B6",
"$+	c #5807AD",
"%+	c #4A0A94",
"&+	c #420B8A",
"*+	c #4C0B98",
"=+	c #500AA3",
"-+	c #5E07B8",
";+	c #6A06C0",
">+	c #6D06C5",
",+	c #7206CD",
"'+	c #7906D1",
")+	c #7806CF",
"!+	c #7606CE",
"~+	c #6806C3",
"{+	c #6107B9",
"]+	c #5C07B2",
"^+	c #530AA7",
"/+	c #4D0B9D",
"(+	c #450B91",
"_+	c #400B87",
":+	c #480B91",
"<+	c #5208A8",
"[+	c #6806C4",
"}+	c #7106CB",
"|+	c #5708AB",
"1+	c #410B89",
"2+	c #3D0B81",
"3+	c #4B0B95",
"4+	c #5308AB",
"5+	c #5807B2",
"6+	c #6906C5",
"7+	c #160E15",
"8+	c #370B7E",
"9+	c #5407AC",
"0+	c #5F07BE",
"a+	c #4D0A9E",
"b+	c #181315",
"c+	c #3B0C79",
"d+	c #390B81",
"e+	c #470B93",
"f+	c #510AA4",
"g+	c #5607B4",
"h+	c #430B8C",
"i+	c #3C0B7D",
"j+	c #181216",
"k+	c #370D73",
"l+	c #450B8F",
"m+	c #460B98",
"n+	c #5407AD",
"o+	c #3B0B82",
"p+	c #170E1A",
"q+	c #15041F",
"r+	c #DCFF00",
". . . . . . . . . . . . . . . . . . . . . . . . . . . . ",
"+ + + + + + + + + + + + + + + + + + + + + + + + + + + + ",
"@ @ @ @ @ @ @ @ @ @ @ @ @ @ @ @ @ @ @ @ @ @ @ @ @ @ @ @ ",
"# # # # # # # # # # # # # # # # # # # # # # # # # # # # ",
"$ $ $ $ % & * = - ; > , ' ) ) ! , ~ ; - { ] ^ / $ $ $ $ ",
"( ( ( ( _ : < [ } | 1 2 3 4 4 3 5 6 7 } 8 9 0 a ( ( ( ( ",
"b b b b c d e f g h i j k l l k j i h m f n o p b b b b ",
"q q q q r s t u v w x y z A z z B x w C D E F G q q q q ",
"H H H H I J K L M N O P Q R S Q P T N U L V W X H H H H ",
"Y Y Y Y Z `  ...+.@.#.$.%.&.&.*.=.#.-.;.>.,.'.).Y Y Y Y ",
"Y Y Y Y !.~.{.].^./.(._._._._._._.(.:.<.[.}.|.1.Y Y Y Y ",
"2.2.2.2.3.4.5.6.7.8.9._._._._._._.9.0.a.b.c.d.e.2.2.2.2.",
"f.f.f.f.g.h.i.j.k.l.m._._.n.n._._.m.l.o.p.q.r.s.f.f.f.f.",
"t.t.t.t.u.v.w.x.y.z.A._._.B.B._._.A.C.D.E.w.F.G.t.t.t.t.",
"H.H.H.H.I.J.K.L.M.N.O._._._._._._.P.Q.R.S.T.U.V.H.H.H.H.",
"H.H.H.H.W.X.Y.Z.`. +.+_._._._._._.++ +@+#+$+X.%+H.H.H.H.",
"H.H.H.H.&+*+=+$+-+;+>+,+'+'+'+)+!+ +~+{+]+^+/+(+H.H.H.H.",
"H.H.H.H._+:+/+<+]+{+@+[+ +}+}+}+>+@+{+Z.|+J.I.1+H.H.H.H.",
"H.H.H.H.2+1+3+J.4+5+#+`.[+6+6+[+`.{+Z.$+=+/+:+_+H.H.H.H.",
"7+7+7+7+8+_+(+V.=+9+5+#+-+0+0+{+#+]+$+U.a+I.1+2+7+7+7+7+",
"b+b+b+b+c+d+1+e+/+f+4+$+]+Z.g+]+]+9+f+a+I.h+_+i+b+b+b+b+",
"j+j+j+j+k+i+_+l+m+a+f+|+n+n+n+n+|+f+J.V.(+1+o+c+j+j+j+j+",
"p+p+p+p+p+p+p+p+p+p+p+p+p+p+p+p+p+p+p+p+p+p+p+p+p+p+p+p+",
"q+q+q+q+q+q+q+q+q+q+q+q+q+q+q+q+q+q+q+q+q+q+q+q+q+q+q+q+",
"q+q+q+q+q+q+q+q+q+q+q+q+q+q+q+q+q+q+q+q+q+q+q+q+q+q+q+q+",
"r+r+r+r+r+r+r+r+r+r+r+r+r+r+r+r+r+r+r+r+r+r+r+r+r+r+r+r+"};
