/* XPM */
static char * maximize_prelight_xpm[] = {
"28 26 234 2",
"  	c None",
". 	c #4F4D50",
"+ 	c #464448",
"@ 	c #444145",
"# 	c #423F43",
"$ 	c #3E3C40",
"% 	c #6F46A2",
"& 	c #744AAF",
"* 	c #764FB3",
"= 	c #7D50B8",
"- 	c #814CC7",
"; 	c #874ED4",
"> 	c #8B4EE0",
", 	c #8F50E8",
"' 	c #8B4EE8",
") 	c #8A4EE8",
"! 	c #8A4DE8",
"~ 	c #8B4DDF",
"{ 	c #824DC8",
"] 	c #7D50B9",
"^ 	c #7B51B5",
"/ 	c #764BB1",
"( 	c #7347A5",
"_ 	c #3C3A3E",
": 	c #6333A8",
"< 	c #6734B4",
"[ 	c #6E3ABC",
"} 	c #7241B9",
"| 	c #7B44C4",
"1 	c #7D44D1",
"2 	c #8143DC",
"3 	c #8644E5",
"4 	c #8343E8",
"5 	c #8344E8",
"6 	c #8944E5",
"7 	c #8543DC",
"8 	c #7F44D0",
"9 	c #7343B9",
"0 	c #7039BE",
"a 	c #6735B6",
"b 	c #6833AE",
"c 	c #3B383C",
"d 	c #602EA6",
"e 	c #662EB6",
"f 	c #6B31C0",
"g 	c #7036C5",
"h 	c #7841C7",
"i 	c #7B42CF",
"j 	c #7D40D5",
"k 	c #8340DE",
"l 	c #823DE5",
"m 	c #8540E7",
"n 	c #773EC9",
"o 	c #6D34C0",
"p 	c #642FB9",
"q 	c #5D2DA9",
"r 	c #38353A",
"s 	c #5727A4",
"t 	c #5F25B7",
"u 	c #682AC2",
"v 	c #6D2EC7",
"w 	c #7233CC",
"x 	c #7C3DCE",
"y 	c #7C3BCF",
"z 	c #7E3AD7",
"A 	c #8439DE",
"B 	c #8039DE",
"C 	c #7F39D9",
"D 	c #7335CC",
"E 	c #6E2EC9",
"F 	c #6728C3",
"G 	c #5E25BD",
"H 	c #5827A8",
"I 	c #353237",
"J 	c #5424A1",
"K 	c #5D22B5",
"L 	c #6622C3",
"M 	c #6825C9",
"N 	c #6E2BCD",
"O 	c #7632D0",
"P 	c #7C3AD0",
"Q 	c #7B38D0",
"R 	c #7F37D5",
"S 	c #8238D7",
"T 	c #8337D9",
"U 	c #7B39D0",
"V 	c #6E2CCE",
"W 	c #6723C4",
"X 	c #5D22B6",
"Y 	c #5624A6",
"Z 	c #343136",
"` 	c #511FA0",
" .	c #5B1EAF",
"..	c #631DC2",
"+.	c #651ECA",
"@.	c #6920CE",
"#.	c #7125D3",
"$.	c #00FFDC",
"%.	c #7626D4",
"&.	c #6A21CE",
"*.	c #671FCC",
"=.	c #641CC3",
"-.	c #5D1EB4",
";.	c #511FA2",
">.	c #521D9F",
",.	c #5619AB",
"'.	c #5C19BC",
").	c #6419C9",
"!.	c #6C1AD0",
"~.	c #731CD5",
"{.	c #741DD6",
"].	c #6F1BD3",
"^.	c #6319CA",
"/.	c #5C19BE",
"(.	c #5619B1",
"_.	c #501DA1",
":.	c #302C32",
"<.	c #4E1A9B",
"[.	c #5118A7",
"}.	c #5818B6",
"|.	c #5C16C5",
"1.	c #6915CE",
"2.	c #7318D6",
"3.	c #821FDD",
"4.	c #8320DF",
"5.	c #821FDE",
"6.	c #7419D8",
"7.	c #6815CF",
"8.	c #6315C8",
"9.	c #5316B8",
"0.	c #5218AB",
"a.	c #5019A1",
"b.	c #1D1620",
"c.	c #49159B",
"d.	c #5313A8",
"e.	c #5313B2",
"f.	c #5B12BF",
"g.	c #6513CB",
"h.	c #6F12D5",
"i.	c #7A16DE",
"j.	c #7F18DE",
"k.	c #6613CD",
"l.	c #5913C1",
"m.	c #5813B5",
"n.	c #5414A7",
"o.	c #4B159D",
"p.	c #110616",
"q.	c #440D97",
"r.	c #4E0DA7",
"s.	c #550DB4",
"t.	c #5B0DBA",
"u.	c #660BC9",
"v.	c #750BD0",
"w.	c #7E0AE3",
"x.	c #860AE5",
"y.	c #840AE1",
"z.	c #790AD5",
"A.	c #660BCB",
"B.	c #610DBD",
"C.	c #4C0DA7",
"D.	c #470D9D",
"E.	c #100516",
"F.	c #470B95",
"G.	c #4F0AA1",
"H.	c #5B0AAF",
"I.	c #5B07B9",
"J.	c #6607C4",
"K.	c #7106CD",
"L.	c #8306DB",
"M.	c #8606DF",
"N.	c #8706E1",
"O.	c #8406DD",
"P.	c #7106CE",
"Q.	c #6907C7",
"R.	c #6407BD",
"S.	c #5D0AB2",
"T.	c #510AA5",
"U.	c #4C0B9A",
"V.	c #470A91",
"W.	c #4F0A9F",
"X.	c #540AAA",
"Y.	c #5C07B4",
"Z.	c #6507BE",
"`.	c #6E06C7",
" +	c #6607C0",
".+	c #5C07B6",
"++	c #5807AD",
"@+	c #4A0A94",
"#+	c #420B8A",
"$+	c #4C0B98",
"%+	c #500AA3",
"&+	c #5E07B8",
"*+	c #6A06C0",
"=+	c #6806C3",
"-+	c #6107B9",
";+	c #5C07B2",
">+	c #530AA7",
",+	c #4D0B9D",
"'+	c #450B91",
")+	c #400B87",
"!+	c #480B91",
"~+	c #5208A8",
"{+	c #6806C4",
"]+	c #7106CB",
"^+	c #6D06C5",
"/+	c #5708AB",
"(+	c #410B89",
"_+	c #3D0B81",
":+	c #4B0B95",
"<+	c #5308AB",
"[+	c #5807B2",
"}+	c #6906C5",
"|+	c #160E15",
"1+	c #370B7E",
"2+	c #5407AC",
"3+	c #5F07BE",
"4+	c #4D0A9E",
"5+	c #181315",
"6+	c #3B0C79",
"7+	c #390B81",
"8+	c #470B93",
"9+	c #510AA4",
"0+	c #5607B4",
"a+	c #430B8C",
"b+	c #3C0B7D",
"c+	c #181216",
"d+	c #390D76",
"e+	c #450B8F",
"f+	c #460B98",
"g+	c #5407AD",
"h+	c #3B0B82",
"i+	c #170E1A",
"j+	c #15041F",
"k+	c #DCFF00",
". . . . . . . . . . . . . . . . . . . . . . . . . . . . ",
"+ + + + + + + + + + + + + + + + + + + + + + + + + + + + ",
"@ @ @ @ @ @ @ @ @ @ @ @ @ @ @ @ @ @ @ @ @ @ @ @ @ @ @ @ ",
"# # # # # # # # # # # # # # # # # # # # # # # # # # # # ",
"$ $ $ $ % & * = - ; > , ' ) ) ! , ~ ; { ] ^ / ( $ $ $ $ ",
"_ _ _ _ : < [ } | 1 2 3 4 5 5 4 6 7 8 | 9 0 a b _ _ _ _ ",
"c c c c d e f g h i j k l m m l k j i n g o p q c c c c ",
"r r r r s t u v w x y z A B A A C y x D E F G H r r r r ",
"I I I I J K L M N O P Q R S T R Q U O V M W X Y I I I I ",
"Z Z Z Z `  ...+.@.#.$.$.$.$.$.$.$.$.%.&.*.=.-.;.Z Z Z Z ",
"Z Z Z Z >.,.'.).!.~.$.$.$.$.$.$.$.$.{.].^./.(._.Z Z Z Z ",
":.:.:.:.<.[.}.|.1.2.$.$.3.4.4.5.$.$.6.7.8.9.0.a.:.:.:.:.",
"b.b.b.b.c.d.e.f.g.h.$.$.i.j.j.i.$.$.h.k.l.m.n.o.b.b.b.b.",
"p.p.p.p.q.r.s.t.u.v.$.$.w.x.x.y.$.$.z.A.B.s.C.D.p.p.p.p.",
"E.E.E.E.F.G.H.I.J.K.$.$.L.M.N.O.$.$.P.Q.R.S.T.U.E.E.E.E.",
"E.E.E.E.V.W.X.Y.Z.`.$.$.$.$.$.$.$.$.`. +.+++W.@+E.E.E.E.",
"E.E.E.E.#+$+%+++&+*+$.$.$.$.$.$.$.$.=+-+;+>+,+'+E.E.E.E.",
"E.E.E.E.)+!+,+~+;+-+ +{+`.]+]+]+^+ +-+Y./+G.F.(+E.E.E.E.",
"E.E.E.E._+(+:+G.<+[+.+Z.{+}+}+{+Z.-+Y.++%+,+!+)+E.E.E.E.",
"|+|+|+|+1+)+'+U.%+2+[+.+&+3+3+-+.+;+++T.4+F.(+_+|+|+|+|+",
"5+5+5+5+6+7+(+8+,+9+<+++;+Y.0+;+;+2+9+4+F.a+)+b+5+5+5+5+",
"c+c+c+c+d+b+)+e+f+4+9+/+g+g+g+g+/+9+G.U.'+(+h+6+c+c+c+c+",
"i+i+i+i+i+i+i+i+i+i+i+i+i+i+i+i+i+i+i+i+i+i+i+i+i+i+i+i+",
"j+j+j+j+j+j+j+j+j+j+j+j+j+j+j+j+j+j+j+j+j+j+j+j+j+j+j+j+",
"j+j+j+j+j+j+j+j+j+j+j+j+j+j+j+j+j+j+j+j+j+j+j+j+j+j+j+j+",
"k+k+k+k+k+k+k+k+k+k+k+k+k+k+k+k+k+k+k+k+k+k+k+k+k+k+k+k+"};
