/* XPM */
static char * menu_prelight_xpm[] = {
"13 26 183 2",
"  	c None",
". 	c #535154",
"+ 	c #49474B",
"@ 	c #464448",
"# 	c #454246",
"$ 	c #8354C1",
"% 	c #824DC8",
"& 	c #864DD4",
"* 	c #8B4EE0",
"= 	c #8F50E8",
"- 	c #8B4EE8",
"; 	c #8A4EE8",
"> 	c #8A4DE8",
", 	c #8B4DDF",
"' 	c #7844C2",
") 	c #7B44C4",
"! 	c #7D44D1",
"~ 	c #8143DC",
"{ 	c #8644E5",
"] 	c #8343E8",
"^ 	c #8344E8",
"/ 	c #8944E5",
"( 	c #8543DC",
"_ 	c #7F44D0",
": 	c #7036C4",
"< 	c #7640C4",
"[ 	c #7941CC",
"} 	c #7D40D5",
"| 	c #8340DE",
"1 	c #823DE5",
"2 	c #8540E7",
"3 	c #743CC3",
"4 	c #6D2EC7",
"5 	c #7032C9",
"6 	c #763AC4",
"7 	c #7C3BCF",
"8 	c #7E3AD7",
"9 	c #8439DE",
"0 	c #8039DE",
"a 	c #7F39D9",
"b 	c #7034C6",
"c 	c #6825C9",
"d 	c #6E2BCD",
"e 	c #7532CE",
"f 	c #7637C7",
"g 	c #7D39D4",
"h 	c #7F37D5",
"i 	c #8238D7",
"j 	c #8337D8",
"k 	c #7B38D0",
"l 	c #7637C8",
"m 	c #6E2CCE",
"n 	c #651ECA",
"o 	c #6920CE",
"p 	c #7125D3",
"q 	c #7B2DD2",
"r 	c #7B36CC",
"s 	c #7D35CF",
"t 	c #7F34D1",
"u 	c #8035D3",
"v 	c #7B33CD",
"w 	c #7834CA",
"x 	c #7B2ED1",
"y 	c #7628D3",
"z 	c #6A21CE",
"A 	c #6419C9",
"B 	c #6C1AD0",
"C 	c #731CD5",
"D 	c #7C21D9",
"E 	c #7C22D7",
"F 	c #7D28D5",
"G 	c #7E21D7",
"H 	c #7F2BD6",
"I 	c #7C29D2",
"J 	c #7B25D3",
"K 	c #7C23D6",
"L 	c #7A19D8",
"M 	c #6F1BD3",
"N 	c #5C16C5",
"O 	c #6915CE",
"P 	c #7318D6",
"Q 	c #7819DA",
"R 	c #7A14DA",
"S 	c #7D1DD8",
"T 	c #7D16D9",
"U 	c #7D21D6",
"V 	c #7C1FD5",
"W 	c #7B1CD8",
"X 	c #7619D9",
"Y 	c #7419D8",
"Z 	c #6815CF",
"` 	c #5B12BF",
" .	c #6513CB",
"..	c #6E12D4",
"+.	c #7612DA",
"@.	c #7C10DA",
"#.	c #7E0CDA",
"$.	c #7E19DC",
"%.	c #7E1ADC",
"&.	c #7E0DDA",
"*.	c #7E0BDA",
"=.	c #7314DA",
"-.	c #6F12D5",
";.	c #6613CD",
">.	c #5B0DBA",
",.	c #660BC9",
"'.	c #6F0BCD",
").	c #770BD3",
"!.	c #790BD6",
"~.	c #7B0CD8",
"{.	c #7D0CD9",
"].	c #800BDB",
"^.	c #7E0ADA",
"/.	c #7B0AD8",
"(.	c #770AD5",
"_.	c #700BD0",
":.	c #660BCB",
"<.	c #5B07B9",
"[.	c #6607C4",
"}.	c #6D06C9",
"|.	c #7306CE",
"1.	c #7908D4",
"2.	c #7C09D7",
"3.	c #7C0AD8",
"4.	c #7909D2",
"5.	c #7B08D5",
"6.	c #7A07D3",
"7.	c #7806D1",
"8.	c #7106CE",
"9.	c #6907C7",
"0.	c #5C07B4",
"a.	c #6507BE",
"b.	c #6D06C6",
"c.	c #7106CD",
"d.	c #7F0ADA",
"e.	c #7A09D4",
"f.	c #7B09D6",
"g.	c #7607D0",
"h.	c #7A09D5",
"i.	c #7508D0",
"j.	c #7206CD",
"k.	c #6E06C7",
"l.	c #6607C0",
"m.	c #5807AD",
"n.	c #5E07B8",
"o.	c #6A06C0",
"p.	c #6D06C5",
"q.	c #6E06C9",
"r.	c #7506CD",
"s.	c #7906D1",
"t.	c #7206CB",
"u.	c #6A06C2",
"v.	c #6806C3",
"w.	c #6107B9",
"x.	c #5208A8",
"y.	c #5C07B2",
"z.	c #6507BF",
"A.	c #6706C2",
"B.	c #7106CB",
"C.	c #6806C0",
"D.	c #4F0AA1",
"E.	c #5308AB",
"F.	c #5807B2",
"G.	c #5C07B6",
"H.	c #6806C4",
"I.	c #6906C5",
"J.	c #4C0B9A",
"K.	c #500AA3",
"L.	c #5407AC",
"M.	c #5F07BE",
"N.	c #510AA5",
"O.	c #470B93",
"P.	c #4D0B9D",
"Q.	c #510AA4",
"R.	c #5607B4",
"S.	c #4D0A9E",
"T.	c #450B8F",
"U.	c #460B98",
"V.	c #5708AB",
"W.	c #5407AD",
"X.	c #160D1A",
"Y.	c #160420",
"Z.	c #DCFF00",
". . . . . . . . . . . . . ",
"+ + + + + + + + + + + + + ",
"@ @ @ @ @ @ @ @ @ @ @ @ @ ",
"# # # # # # # # # # # # # ",
"$ % & * = - ; ; > = , & % ",
"' ) ! ~ { ] ^ ^ ] / ( _ ) ",
": < [ } | 1 2 2 1 | } [ 3 ",
"4 5 6 7 8 9 0 9 9 a 7 6 b ",
"c d e f g h i j h k l e m ",
"n o p q r s t u v w x y z ",
"A B C D E F G H I J K L M ",
"N O P Q R S T U V W X Y Z ",
"`  ...+.@.#.$.%.&.*.=.-.;.",
">.,.'.).!.~.{.].^./.(._.:.",
"<.[.}.|.1.2.3.4.5.6.7.8.9.",
"0.a.b.c.d.e.f.g.h.i.j.k.l.",
"m.n.o.p.q.r.s.t.u.r.k.v.w.",
"x.y.w.z.A.k.B.B.B.C.a.w.0.",
"D.E.F.G.a.H.I.I.H.a.w.0.m.",
"J.K.L.F.G.n.M.M.w.G.y.m.N.",
"O.P.Q.E.m.y.0.R.y.y.L.Q.S.",
"T.U.S.Q.V.W.W.W.W.V.Q.D.J.",
"X.X.X.X.X.X.X.X.X.X.X.X.X.",
"Y.Y.Y.Y.Y.Y.Y.Y.Y.Y.Y.Y.Y.",
"Y.Y.Y.Y.Y.Y.Y.Y.Y.Y.Y.Y.Y.",
"Z.Z.Z.Z.Z.Z.Z.Z.Z.Z.Z.Z.Z."};
