/* XPM */
static char * menu_active_xpm[] = {
"13 26 19 1",
" 	c None",
".	c #535154",
"+	c #49474B",
"@	c #464448",
"#	c #454246",
"$	c #413F43",
"%	c #3F3D41",
"&	c #3D3B3F",
"*	c #3B383C",
"=	c #38353A",
"-	c #363338",
";	c #322E34",
">	c #1D1721",
",	c #110616",
"'	c #100516",
")	c #140B19",
"!	c #160D1A",
"~	c #160420",
"{	c #6F1497",
".............",
"+++++++++++++",
"@@@@@@@@@@@@@",
"#############",
"$$$$$$$$$$$$$",
"%%%%%%%%%%%%%",
"&&&&&&&&&&&&&",
"*************",
"=============",
"-------------",
"-------------",
";;;;;;;;;;;;;",
">>>>>>>>>>>>>",
",,,,,,,,,,,,,",
"'''''''''''''",
"'''''''''''''",
"'''''''''''''",
"'''''''''''''",
"'''''''''''''",
")))))))))))))",
"!!!!!!!!!!!!!",
"!!!!!!!!!!!!!",
"!!!!!!!!!!!!!",
"~~~~~~~~~~~~~",
"~~~~~~~~~~~~~",
"{{{{{{{{{{{{{"};
