/* XPM */
static char * shade_inactive_xpm[] = {
"24 26 64 1",
" 	c None",
".	c #535154",
"+	c #49474B",
"@	c #464448",
"#	c #454246",
"$	c #413F43",
"%	c #545356",
"&	c #3F3D41",
"*	c #504E51",
"=	c #3D3B3F",
"-	c #3B383C",
";	c #38353A",
">	c #444145",
",	c #363338",
"'	c #434044",
")	c #00FFDC",
"!	c #322E34",
"~	c #353237",
"{	c #1D1721",
"]	c #27232A",
"^	c #110616",
"/	c #1C1620",
"(	c #100516",
"_	c #170F1B",
":	c #18101C",
"<	c #19111D",
"[	c #1A121E",
"}	c #160E1B",
"|	c #160F1B",
"1	c #18111C",
"2	c #1A151E",
"3	c #18111D",
"4	c #170F1C",
"5	c #18111B",
"6	c #18121B",
"7	c #18131B",
"8	c #18141B",
"9	c #18151B",
"0	c #19151C",
"a	c #19161C",
"b	c #1C181F",
"c	c #19121C",
"d	c #19161B",
"e	c #19171B",
"f	c #1A171B",
"g	c #18171A",
"h	c #19181B",
"i	c #1A181B",
"j	c #19171A",
"k	c #19161A",
"l	c #18151A",
"m	c #171419",
"n	c #171319",
"o	c #18141A",
"p	c #1B1A1B",
"q	c #1B1A1C",
"r	c #1C191C",
"s	c #150E15",
"t	c #1E171F",
"u	c #171215",
"v	c #6F1497",
"w	c #170E19",
"x	c #15041E",
"y	c #15041F",
"........................",
"++++++++++++++++++++++++",
"@@@@@@@@@@@@@@@@@@@@@@@@",
"########################",
"$$%%%%%%%%%%%%%%%%%%%%$$",
"&&********************&&",
"==++++++++++++++++++++==",
"--@@@@@@@@@@@@@@@@@@@@--",
";;>>>>>>>>>>>>>>>>>>>>;;",
",,'''''''''))''''''''',,",
",,&&&&&&&&))))&&&&&&&&,,",
"!!~~~~~~~))))))~~~~~~~!!",
"{{]]]]]]))))))))]]]]]]{{",
"^^/////)))/))/)))/////^^",
"((____:::<[))[<:::____((",
"((}}}}||_12))3444}}}}}((",
"((5678890ab))cccc55555((",
"((defeghijjklmnmoldddd((",
"((pppppqrrqppppppppppp((",
"ssttttttttttttttttttttss",
"uuttttttttttttttttttttuu",
"uuvvvvvvvvvvvvvvvvvvvvuu",
"wwwwwwwwwwwwwwwwwwwwwwww",
"xxxxxxxxxxxxxxxxxxxxxxxx",
"yyyyyyyyyyyyyyyyyyyyyyyy",
"))))))))))))))))))))))))"};
