/* XPM */
static char * shade_toggled_pressed_xpm[] = {
"24 26 64 1",
" 	c None",
".	c #535154",
"+	c #49474B",
"@	c #464448",
"#	c #454246",
"$	c #413F43",
"%	c #545356",
"&	c #3F3D41",
"*	c #504E51",
"=	c #3D3B3F",
"-	c #3B383C",
";	c #38353A",
">	c #444145",
",	c #363338",
"'	c #434044",
")	c #00FFDC",
"!	c #322E34",
"~	c #353237",
"{	c #1D1721",
"]	c #27232A",
"^	c #242027",
"/	c #221E26",
"(	c #110616",
"_	c #1C1620",
":	c #1A131E",
"<	c #100516",
"[	c #170F1B",
"}	c #18101C",
"|	c #160E1B",
"1	c #160F1B",
"2	c #18111C",
"3	c #170F1C",
"4	c #18111B",
"5	c #18121B",
"6	c #18131B",
"7	c #18141B",
"8	c #18151B",
"9	c #19151C",
"0	c #19161C",
"a	c #1C181F",
"b	c #19121C",
"c	c #19161B",
"d	c #19171B",
"e	c #1A171B",
"f	c #18171A",
"g	c #19181B",
"h	c #1A181B",
"i	c #19171A",
"j	c #19161A",
"k	c #18151A",
"l	c #171419",
"m	c #171319",
"n	c #18141A",
"o	c #1B1A1B",
"p	c #1B1A1C",
"q	c #1C191C",
"r	c #150E15",
"s	c #1E171F",
"t	c #171215",
"u	c #6F1497",
"v	c #170E19",
"w	c #15041E",
"x	c #15041F",
"y	c #DCFF00",
"........................",
"++++++++++++++++++++++++",
"@@@@@@@@@@@@@@@@@@@@@@@@",
"########################",
"$$%%%%%%%%%%%%%%%%%%%%$$",
"&&********************&&",
"==++++++++++++++++++++==",
"--@@@@@@@@@@@@@@@@@@@@--",
";;>>>>>>>>>>>>>>>>>>>>;;",
",,'''''''''))''''''''',,",
",,&&&&&&&&&))&&&&&&&&&,,",
"!!~~~~~~~~~))~~~~~~~~~!!",
"{{]]]]])))^))/)))]]]]]{{",
"((______)))))))):_____((",
"<<[[[[}}}))))))}}}[[[[<<",
"<<||||11[2))))333|||||<<",
"<<45677890a))bbbb44444<<",
"<<cdedfghiijklmlnkcccc<<",
"<<ooooopqqpooooooooooo<<",
"rrssssssssssssssssssssrr",
"ttsssssssssssssssssssstt",
"ttuuuuuuuuuuuuuuuuuuuutt",
"vvvvvvvvvvvvvvvvvvvvvvvv",
"wwwwwwwwwwwwwwwwwwwwwwww",
"xxxxxxxxxxxxxxxxxxxxxxxx",
"yyyyyyyyyyyyyyyyyyyyyyyy"};
