/* XPM */
static char * shade_toggled_active_xpm[] = {
"24 26 65 1",
" 	c None",
".	c #535154",
"+	c #49474B",
"@	c #464448",
"#	c #454246",
"$	c #413F43",
"%	c #545356",
"&	c #3F3D41",
"*	c #504E51",
"=	c #3D3B3F",
"-	c #3B383C",
";	c #38353A",
">	c #444145",
",	c #363338",
"'	c #434044",
")	c #DCFF00",
"!	c #3E3C40",
"~	c #403E42",
"{	c #322E34",
"]	c #353237",
"^	c #343136",
"/	c #353238",
"(	c #1D1721",
"_	c #27232A",
":	c #262129",
"<	c #110616",
"[	c #1C1620",
"}	c #100516",
"|	c #170F1B",
"1	c #18101C",
"2	c #160E1B",
"3	c #160F1B",
"4	c #18111C",
"5	c #170F1C",
"6	c #18111B",
"7	c #18121B",
"8	c #18131B",
"9	c #18141B",
"0	c #18151B",
"a	c #19151C",
"b	c #19161C",
"c	c #1C181F",
"d	c #19121C",
"e	c #19161B",
"f	c #19171B",
"g	c #1A171B",
"h	c #18171A",
"i	c #19181B",
"j	c #1A181B",
"k	c #19171A",
"l	c #19161A",
"m	c #18151A",
"n	c #171419",
"o	c #171319",
"p	c #18141A",
"q	c #1B1A1B",
"r	c #1B1A1C",
"s	c #1C191C",
"t	c #150E15",
"u	c #1E171F",
"v	c #171215",
"w	c #6F1497",
"x	c #170E19",
"y	c #15041E",
"z	c #15041F",
"........................",
"++++++++++++++++++++++++",
"@@@@@@@@@@@@@@@@@@@@@@@@",
"########################",
"$$%%%%%%%%%%%%%%%%%%%%$$",
"&&********************&&",
"==++++++++++++++++++++==",
"--@@@@@@@@@@@@@@@@@@@@--",
";;>>>>>>>>>>>>>>>>>>>>;;",
",,'''''''''))''''''''',,",
",,&&&&&&&&!))~&&&&&&&&,,",
"{{]]]]]]]]^))^/]]]]]]]{{",
"((_____))):))_)))_____((",
"<<[[[[[[))))))))([[[[[<<",
"}}||||111))))))111||||}}",
"}}222233|4))))55522222}}",
"}}678990abc))dddd66666}}",
"}}efgfhijkklmnonpmeeee}}",
"}}qqqqqrssrqqqqqqqqqqq}}",
"ttuuuuuuuuuuuuuuuuuuuutt",
"vvuuuuuuuuuuuuuuuuuuuuvv",
"vvwwwwwwwwwwwwwwwwwwwwvv",
"xxxxxxxxxxxxxxxxxxxxxxxx",
"yyyyyyyyyyyyyyyyyyyyyyyy",
"zzzzzzzzzzzzzzzzzzzzzzzz",
"))))))))))))))))))))))))"};
