/* XPM */
static char * shade_toggled_prelight_xpm[] = {
"24 26 232 2",
"  	c None",
". 	c #4F4D50",
"+ 	c #464448",
"@ 	c #444145",
"# 	c #3E3C40",
"$ 	c #3A373B",
"% 	c #3B0C79",
"& 	c #3B0B82",
"* 	c #410B89",
"= 	c #450B91",
"- 	c #4C0B9A",
"; 	c #4F0AA1",
"> 	c #510AA4",
", 	c #5708AB",
"' 	c #5407AD",
") 	c #4D0A9E",
"! 	c #460B98",
"~ 	c #450B8F",
"{ 	c #400B87",
"] 	c #3C0B7D",
"^ 	c #390D76",
"/ 	c #3C3A3E",
"( 	c #430B8C",
"_ 	c #470B95",
": 	c #5407AC",
"< 	c #5C07B2",
"[ 	c #5607B4",
"} 	c #5C07B4",
"| 	c #5807AD",
"1 	c #5308AB",
"2 	c #4D0B9D",
"3 	c #470B93",
"4 	c #390B81",
"5 	c #3B383C",
"6 	c #3D0B81",
"7 	c #510AA5",
"8 	c #5C07B6",
"9 	c #6107B9",
"0 	c #5F07BE",
"a 	c #5E07B8",
"b 	c #5807B2",
"c 	c #500AA3",
"d 	c #370B7E",
"e 	c #38353A",
"f 	c #480B91",
"g 	c #6507BE",
"h 	c #6806C4",
"i 	c #6906C5",
"j 	c #4B0B95",
"k 	c #353237",
"l 	c #6607C0",
"m 	c #6D06C5",
"n 	c #7106CB",
"o 	c #6E06C7",
"p 	c #5208A8",
"q 	c #343136",
"r 	c #530AA7",
"s 	c #009883",
"t 	c #01F2D1",
"u 	c #4C0B98",
"v 	c #420B8A",
"w 	c #4A0A94",
"x 	c #4F0A9F",
"y 	c #540AAA",
"z 	c #470A91",
"A 	c #302C32",
"B 	c #5D0AB2",
"C 	c #6407BD",
"D 	c #6907C7",
"E 	c #7106CE",
"F 	c #7F06D4",
"G 	c #8306DB",
"H 	c #8406DD",
"I 	c #7A06D4",
"J 	c #7106CD",
"K 	c #6607C4",
"L 	c #5B07B9",
"M 	c #5B0AAF",
"N 	c #1D1620",
"O 	c #470D9D",
"P 	c #4C0DA7",
"Q 	c #550DB4",
"R 	c #610DBD",
"S 	c #660BCB",
"T 	c #840AE1",
"U 	c #7E0AE3",
"V 	c #660BC9",
"W 	c #5B0DBA",
"X 	c #4E0DA7",
"Y 	c #440D97",
"Z 	c #110616",
"` 	c #4B159D",
" .	c #5414A7",
"..	c #5813B5",
"+.	c #5913C1",
"@.	c #6613CD",
"#.	c #6F12D5",
"$.	c #6513CB",
"%.	c #5B12BF",
"&.	c #5313B2",
"*.	c #5313A8",
"=.	c #49159B",
"-.	c #100516",
";.	c #5019A1",
">.	c #5218AB",
",.	c #5316B8",
"'.	c #6315C8",
").	c #6815CF",
"!.	c #7419D8",
"~.	c #7819DA",
"{.	c #7318D6",
"].	c #6915CE",
"^.	c #5C16C5",
"/.	c #5818B6",
"(.	c #5118A7",
"_.	c #4E1A9B",
":.	c #501DA1",
"<.	c #5619B1",
"[.	c #5C19BE",
"}.	c #6319CA",
"|.	c #6F1BD3",
"1.	c #741DD6",
"2.	c #7C21D9",
"3.	c #7E26DB",
"4.	c #731CD5",
"5.	c #6C1AD0",
"6.	c #6419C9",
"7.	c #5C19BC",
"8.	c #5619AB",
"9.	c #521D9F",
"0.	c #511FA2",
"a.	c #5D1EB4",
"b.	c #641CC3",
"c.	c #671FCC",
"d.	c #6A21CE",
"e.	c #7626D4",
"f.	c #7D2ED5",
"g.	c #7E37D4",
"h.	c #8136D7",
"i.	c #8137D6",
"j.	c #8039D3",
"k.	c #7125D3",
"l.	c #6920CE",
"m.	c #651ECA",
"n.	c #631DC2",
"o.	c #5B1EAF",
"p.	c #511FA0",
"q.	c #5624A6",
"r.	c #5D22B6",
"s.	c #6723C4",
"t.	c #6825C9",
"u.	c #6E2CCE",
"v.	c #7632D0",
"w.	c #7C3AD2",
"x.	c #813BDA",
"y.	c #8138DA",
"z.	c #8337D9",
"A.	c #8239D9",
"B.	c #7C3AD1",
"C.	c #6E2BCD",
"D.	c #6622C3",
"E.	c #5D22B5",
"F.	c #5424A1",
"G.	c #5827A8",
"H.	c #5E25BD",
"I.	c #6728C3",
"J.	c #6E2EC9",
"K.	c #7335CC",
"L.	c #7C3DCE",
"M.	c #823ED9",
"N.	c #7F39D9",
"O.	c #8439DE",
"P.	c #8039DE",
"Q.	c #7F3BD9",
"R.	c #7233CC",
"S.	c #6D2EC7",
"T.	c #682AC2",
"U.	c #5F25B7",
"V.	c #5727A4",
"W.	c #160E15",
"X.	c #5D2DA9",
"Y.	c #642FB9",
"Z.	c #6D34C0",
"`.	c #7036C5",
" +	c #773EC9",
".+	c #7F44D6",
"++	c #7F41DA",
"@+	c #8340DE",
"#+	c #823DE5",
"$+	c #8540E7",
"%+	c #7841C7",
"&+	c #6B31C0",
"*+	c #662EB6",
"=+	c #602EA6",
"-+	c #181315",
";+	c #6833AE",
">+	c #6735B6",
",+	c #7039BE",
"'+	c #7343B9",
")+	c #7B44C4",
"!+	c #7F44D0",
"~+	c #8543DC",
"{+	c #8944E5",
"]+	c #8343E8",
"^+	c #8344E8",
"/+	c #8644E5",
"(+	c #8143DC",
"_+	c #7D44D1",
":+	c #7241B9",
"<+	c #6E3ABC",
"[+	c #6734B4",
"}+	c #6333A8",
"|+	c #181216",
"1+	c #6E449D",
"2+	c #7047A9",
"3+	c #754DAC",
"4+	c #7D50B9",
"5+	c #824DC8",
"6+	c #864DD4",
"7+	c #8A4CDF",
"8+	c #8D4EE8",
"9+	c #894CE8",
"0+	c #894DE8",
"a+	c #8A4DE8",
"b+	c #8A4DE0",
"c+	c #7D50B8",
"d+	c #704BAB",
"e+	c #6F47A7",
"f+	c #6A439A",
"g+	c #170E1A",
"h+	c #15041F",
"i+	c #DCFF00",
". . . . . . . . . . . . . . . . . . . . . . . . ",
"+ + + + + + + + + + + + + + + + + + + + + + + + ",
"@ @ @ @ @ @ @ @ @ @ @ @ @ @ @ @ @ @ @ @ @ @ @ @ ",
"# # # # # # # # # # # # # # # # # # # # # # # # ",
"$ $ % & * = - ; > , ' ' ' ' , > ) ! ~ { ] ^ $ $ ",
"/ / ] { ( _ ) > : < < [ } < | 1 > 2 3 * 4 % / / ",
"5 5 6 * _ ) 7 | < 8 9 0 0 a 8 b : c - = { d 5 5 ",
"e e { f 2 c | } 9 g h i i h g 8 b 1 ; j * 6 e e ",
"k k * _ ; , } 9 l m n n n o h l 9 < p 2 f { k k ",
"q q = 2 r < 9 s t t t t t t t t s a | c u v q q ",
"q q w x | 8 l s t t t t t t t t s g } y x z q q ",
"A A - 7 B C D E F G H t t G G I J K L M ; _ A A ",
"N N O P Q R S t t t T t t U t t t V W Q X Y N N ",
"Z Z `  ...+.@.#.t t t t t t t t #.$.%.&.*.=.Z Z ",
"-.-.;.>.,.'.).!.~.t t t t t t ~.{.].^./.(._.-.-.",
"-.-.:.<.[.}.|.1.2.3.t t t t 3.2.4.5.6.7.8.9.-.-.",
"-.-.0.a.b.c.d.e.f.g.h.t t i.j.f.k.l.m.n.o.p.-.-.",
"-.-.q.r.s.t.u.v.w.x.y.z.A.y.x.B.v.C.t.D.E.F.-.-.",
"-.-.G.H.I.J.K.L.M.N.O.O.P.O.Q.M.L.R.S.T.U.V.-.-.",
"W.W.X.Y.Z.`. +.+++@+#+$+$+#+@+++.+%+`.&+*+=+W.W.",
"-+-+;+>+,+'+)+!+~+{+]+^+^+]+/+(+_+)+:+<+[+}+-+-+",
"|+|+1+2+3+4+5+6+7+8+9+0+0+a+8+b+6+5+c+d+e+f+|+|+",
"g+g+g+g+g+g+g+g+g+g+g+g+g+g+g+g+g+g+g+g+g+g+g+g+",
"h+h+h+h+h+h+h+h+h+h+h+h+h+h+h+h+h+h+h+h+h+h+h+h+",
"h+h+h+h+h+h+h+h+h+h+h+h+h+h+h+h+h+h+h+h+h+h+h+h+",
"i+i+i+i+i+i+i+i+i+i+i+i+i+i+i+i+i+i+i+i+i+i+i+i+"};
