/* XPM */
static char * shade_prelight_xpm[] = {
"24 26 232 2",
"  	c None",
". 	c #4F4D50",
"+ 	c #464448",
"@ 	c #444145",
"# 	c #3E3C40",
"$ 	c #3A373B",
"% 	c #6A439A",
"& 	c #6F47A7",
"* 	c #704BAB",
"= 	c #7D50B8",
"- 	c #824DC8",
"; 	c #864DD4",
"> 	c #8A4DE0",
", 	c #8D4EE8",
"' 	c #8A4DE8",
") 	c #894DE8",
"! 	c #894CE8",
"~ 	c #8A4CDF",
"{ 	c #7D50B9",
"] 	c #754DAC",
"^ 	c #7047A9",
"/ 	c #6E449D",
"( 	c #3C3A3E",
"_ 	c #6333A8",
": 	c #6734B4",
"< 	c #6E3ABC",
"[ 	c #7241B9",
"} 	c #7B44C4",
"| 	c #7D44D1",
"1 	c #8143DC",
"2 	c #8644E5",
"3 	c #8343E8",
"4 	c #8344E8",
"5 	c #8944E5",
"6 	c #8543DC",
"7 	c #7F44D0",
"8 	c #7343B9",
"9 	c #7039BE",
"0 	c #6735B6",
"a 	c #6833AE",
"b 	c #3B383C",
"c 	c #602EA6",
"d 	c #662EB6",
"e 	c #6B31C0",
"f 	c #7036C5",
"g 	c #7841C7",
"h 	c #7F44D6",
"i 	c #7F41DA",
"j 	c #8340DE",
"k 	c #823DE5",
"l 	c #8540E7",
"m 	c #773EC9",
"n 	c #6D34C0",
"o 	c #642FB9",
"p 	c #5D2DA9",
"q 	c #38353A",
"r 	c #5727A4",
"s 	c #5F25B7",
"t 	c #682AC2",
"u 	c #6D2EC7",
"v 	c #7233CC",
"w 	c #7C3DCE",
"x 	c #823ED9",
"y 	c #7F3BD9",
"z 	c #8439DE",
"A 	c #8039DE",
"B 	c #7F39D9",
"C 	c #7335CC",
"D 	c #6E2EC9",
"E 	c #6728C3",
"F 	c #5E25BD",
"G 	c #5827A8",
"H 	c #353237",
"I 	c #5424A1",
"J 	c #5D22B5",
"K 	c #6622C3",
"L 	c #6825C9",
"M 	c #6E2BCD",
"N 	c #7632D0",
"O 	c #7C3AD1",
"P 	c #813BDA",
"Q 	c #8138DA",
"R 	c #8239D9",
"S 	c #8337D9",
"T 	c #7C3AD2",
"U 	c #6E2CCE",
"V 	c #6723C4",
"W 	c #5D22B6",
"X 	c #5624A6",
"Y 	c #343136",
"Z 	c #511FA0",
"` 	c #5B1EAF",
" .	c #631DC2",
"..	c #651ECA",
"+.	c #6920CE",
"@.	c #7125D3",
"#.	c #7D2ED5",
"$.	c #8039D3",
"%.	c #8137D6",
"&.	c #01F2D1",
"*.	c #8136D7",
"=.	c #7E37D4",
"-.	c #7626D4",
";.	c #6A21CE",
">.	c #671FCC",
",.	c #641CC3",
"'.	c #5D1EB4",
").	c #511FA2",
"!.	c #521D9F",
"~.	c #5619AB",
"{.	c #5C19BC",
"].	c #6419C9",
"^.	c #6C1AD0",
"/.	c #731CD5",
"(.	c #7C21D9",
"_.	c #7E26DB",
":.	c #741DD6",
"<.	c #6F1BD3",
"[.	c #6319CA",
"}.	c #5C19BE",
"|.	c #5619B1",
"1.	c #501DA1",
"2.	c #302C32",
"3.	c #4E1A9B",
"4.	c #5118A7",
"5.	c #5818B6",
"6.	c #5C16C5",
"7.	c #6915CE",
"8.	c #7318D6",
"9.	c #7819DA",
"0.	c #7419D8",
"a.	c #6815CF",
"b.	c #6315C8",
"c.	c #5316B8",
"d.	c #5218AB",
"e.	c #5019A1",
"f.	c #1D1620",
"g.	c #49159B",
"h.	c #5313A8",
"i.	c #5313B2",
"j.	c #5B12BF",
"k.	c #6513CB",
"l.	c #6F12D5",
"m.	c #6613CD",
"n.	c #5913C1",
"o.	c #5813B5",
"p.	c #5414A7",
"q.	c #4B159D",
"r.	c #110616",
"s.	c #440D97",
"t.	c #4E0DA7",
"u.	c #550DB4",
"v.	c #5B0DBA",
"w.	c #660BC9",
"x.	c #7E0AE3",
"y.	c #840AE1",
"z.	c #660BCB",
"A.	c #610DBD",
"B.	c #4C0DA7",
"C.	c #470D9D",
"D.	c #100516",
"E.	c #470B95",
"F.	c #4F0AA1",
"G.	c #5B0AAF",
"H.	c #5B07B9",
"I.	c #6607C4",
"J.	c #7106CD",
"K.	c #7A06D4",
"L.	c #8306DB",
"M.	c #8406DD",
"N.	c #7F06D4",
"O.	c #7106CE",
"P.	c #6907C7",
"Q.	c #6407BD",
"R.	c #5D0AB2",
"S.	c #510AA5",
"T.	c #4C0B9A",
"U.	c #470A91",
"V.	c #4F0A9F",
"W.	c #540AAA",
"X.	c #5C07B4",
"Y.	c #6507BE",
"Z.	c #009883",
"`.	c #6607C0",
" +	c #5C07B6",
".+	c #5807AD",
"++	c #4A0A94",
"@+	c #420B8A",
"#+	c #4C0B98",
"$+	c #500AA3",
"%+	c #5E07B8",
"&+	c #6107B9",
"*+	c #5C07B2",
"=+	c #530AA7",
"-+	c #4D0B9D",
";+	c #450B91",
">+	c #400B87",
",+	c #480B91",
"'+	c #5208A8",
")+	c #6806C4",
"!+	c #6E06C7",
"~+	c #7106CB",
"{+	c #6D06C5",
"]+	c #5708AB",
"^+	c #410B89",
"/+	c #3D0B81",
"(+	c #4B0B95",
"_+	c #5308AB",
":+	c #5807B2",
"<+	c #6906C5",
"[+	c #160E15",
"}+	c #370B7E",
"|+	c #5407AC",
"1+	c #5F07BE",
"2+	c #4D0A9E",
"3+	c #181315",
"4+	c #3B0C79",
"5+	c #390B81",
"6+	c #470B93",
"7+	c #510AA4",
"8+	c #5607B4",
"9+	c #430B8C",
"0+	c #3C0B7D",
"a+	c #181216",
"b+	c #390D76",
"c+	c #450B8F",
"d+	c #460B98",
"e+	c #5407AD",
"f+	c #3B0B82",
"g+	c #170E1A",
"h+	c #15041F",
"i+	c #DCFF00",
". . . . . . . . . . . . . . . . . . . . . . . . ",
"+ + + + + + + + + + + + + + + + + + + + + + + + ",
"@ @ @ @ @ @ @ @ @ @ @ @ @ @ @ @ @ @ @ @ @ @ @ @ ",
"# # # # # # # # # # # # # # # # # # # # # # # # ",
"$ $ % & * = - ; > , ' ) ) ! , ~ ; - { ] ^ / $ $ ",
"( ( _ : < [ } | 1 2 3 4 4 3 5 6 7 } 8 9 0 a ( ( ",
"b b c d e f g h i j k l l k j i h m f n o p b b ",
"q q r s t u v w x y z A z z B x w C D E F G q q ",
"H H I J K L M N O P Q R S Q P T N U L V W X H H ",
"Y Y Z `  ...+.@.#.$.%.&.&.*.=.#.-.;.>.,.'.).Y Y ",
"Y Y !.~.{.].^./.(._.&.&.&.&._.(.:.<.[.}.|.1.Y Y ",
"2.2.3.4.5.6.7.8.9.&.&.&.&.&.&.9.0.a.b.c.d.e.2.2.",
"f.f.g.h.i.j.k.l.&.&.&.&.&.&.&.&.l.m.n.o.p.q.f.f.",
"r.r.s.t.u.v.w.&.&.&.x.&.&.y.&.&.&.z.A.u.B.C.r.r.",
"D.D.E.F.G.H.I.J.K.L.L.&.&.M.L.N.O.P.Q.R.S.T.D.D.",
"D.D.U.V.W.X.Y.Z.&.&.&.&.&.&.&.&.Z.`. +.+V.++D.D.",
"D.D.@+#+$+.+%+Z.&.&.&.&.&.&.&.&.Z.&+*+=+-+;+D.D.",
"D.D.>+,+-+'+*+&+`.)+!+~+~+~+{+`.&+X.]+F.E.^+D.D.",
"D.D./+^+(+F._+:+ +Y.)+<+<+)+Y.&+X..+$+-+,+>+D.D.",
"[+[+}+>+;+T.$+|+:+ +%+1+1+&+ +*+.+S.2+E.^+/+[+[+",
"3+3+4+5+^+6+-+7+_+.+*+X.8+*+*+|+7+2+E.9+>+0+3+3+",
"a+a+b+0+>+c+d+2+7+]+e+e+e+e+]+7+F.T.;+^+f+4+a+a+",
"g+g+g+g+g+g+g+g+g+g+g+g+g+g+g+g+g+g+g+g+g+g+g+g+",
"h+h+h+h+h+h+h+h+h+h+h+h+h+h+h+h+h+h+h+h+h+h+h+h+",
"h+h+h+h+h+h+h+h+h+h+h+h+h+h+h+h+h+h+h+h+h+h+h+h+",
"i+i+i+i+i+i+i+i+i+i+i+i+i+i+i+i+i+i+i+i+i+i+i+i+"};
