/* XPM */
static char * stick_toggled_pressed_xpm[] = {
"24 26 61 1",
" 	c None",
".	c #535154",
"+	c #49474B",
"@	c #464448",
"#	c #454246",
"$	c #413F43",
"%	c #545356",
"&	c #3F3D41",
"*	c #504E51",
"=	c #3D3B3F",
"-	c #3B383C",
";	c #38353A",
">	c #444145",
",	c #363338",
"'	c #434044",
")	c #00FFDC",
"!	c #322E34",
"~	c #353237",
"{	c #1D1721",
"]	c #27232A",
"^	c #110616",
"/	c #1C1620",
"(	c #1A131E",
"_	c #100516",
":	c #170F1B",
"<	c #18101C",
"[	c #160E1B",
"}	c #160F1B",
"|	c #170F1C",
"1	c #18111B",
"2	c #18121B",
"3	c #18131B",
"4	c #18141B",
"5	c #18151B",
"6	c #19151C",
"7	c #19161C",
"8	c #1C181F",
"9	c #19121C",
"0	c #19161B",
"a	c #19171B",
"b	c #1A171B",
"c	c #18171A",
"d	c #19181B",
"e	c #1A181B",
"f	c #19171A",
"g	c #19161A",
"h	c #18151A",
"i	c #171419",
"j	c #171319",
"k	c #18141A",
"l	c #1B1A1B",
"m	c #1B1A1C",
"n	c #1C191C",
"o	c #150E15",
"p	c #1E171F",
"q	c #171215",
"r	c #6F1497",
"s	c #170E19",
"t	c #15041E",
"u	c #15041F",
"v	c #DCFF00",
"........................",
"++++++++++++++++++++++++",
"@@@@@@@@@@@@@@@@@@@@@@@@",
"########################",
"$$%%%%%%%%%%%%%%%%%%%%$$",
"&&********************&&",
"==++++++++++++++++++++==",
"--@@@@@@@@@@@@@@@@@@@@--",
";;>>>>>>>>>>>>>>>>>>>>;;",
",,'''''''''))''''''''',,",
",,&&&&&&&))))))&&&&&&&,,",
"!!~~~~~~~))))))~~~~~~~!!",
"{{]]]]]]))))))))]]]]]]{{",
"^^//////))))))))(/////^^",
"__::::<<<))))))<<<::::__",
"__[[[[}}:))))))||[[[[[__",
"__123445678))999911111__",
"__0abacdeffghijikh0000__",
"__lllllmnnmlllllllllll__",
"ooppppppppppppppppppppoo",
"qqppppppppppppppppppppqq",
"qqrrrrrrrrrrrrrrrrrrrrqq",
"ssssssssssssssssssssssss",
"tttttttttttttttttttttttt",
"uuuuuuuuuuuuuuuuuuuuuuuu",
"vvvvvvvvvvvvvvvvvvvvvvvv"};
