/* XPM */
static char * stick_toggled_prelight_xpm[] = {
"24 26 262 2",
"  	c None",
". 	c #535154",
"+ 	c #49474B",
"@ 	c #464448",
"# 	c #454246",
"$ 	c #413F43",
"% 	c #6F46A2",
"& 	c #744AAF",
"* 	c #764FB3",
"= 	c #7E50BA",
"- 	c #824DC8",
"; 	c #874ED4",
"> 	c #8B4EE0",
", 	c #8E4FE8",
"' 	c #8B4EE8",
") 	c #8A4EE8",
"! 	c #8A4DE8",
"~ 	c #8B4DDF",
"{ 	c #8354C2",
"] 	c #7B51B5",
"^ 	c #764BB1",
"/ 	c #7347A5",
"( 	c #3F3D41",
"_ 	c #6333A8",
": 	c #6734B4",
"< 	c #6E3ABC",
"[ 	c #7341BA",
"} 	c #7B44C4",
"| 	c #7D44D1",
"1 	c #8143DC",
"2 	c #8644E5",
"3 	c #8343E8",
"4 	c #8344E8",
"5 	c #8944E5",
"6 	c #8543DC",
"7 	c #7F44D0",
"8 	c #7D45C7",
"9 	c #7343B9",
"0 	c #7039BE",
"a 	c #6735B6",
"b 	c #6833AE",
"c 	c #3D3B3F",
"d 	c #602EA6",
"e 	c #662EB6",
"f 	c #6B31C0",
"g 	c #7036C5",
"h 	c #733EBF",
"i 	c #7941CC",
"j 	c #7D40D5",
"k 	c #8340DE",
"l 	c #823DE5",
"m 	c #8540E7",
"n 	c #773EC9",
"o 	c #6D34C0",
"p 	c #642FB9",
"q 	c #5D2DA9",
"r 	c #3B383C",
"s 	c #5727A4",
"t 	c #5F25B7",
"u 	c #682AC2",
"v 	c #6D2EC7",
"w 	c #7233CC",
"x 	c #793BC9",
"y 	c #7C3BCF",
"z 	c #7E3AD7",
"A 	c #8439DE",
"B 	c #8039DE",
"C 	c #7F39D9",
"D 	c #7B3CCC",
"E 	c #7335CC",
"F 	c #6E2EC9",
"G 	c #6728C3",
"H 	c #5E25BD",
"I 	c #5827A8",
"J 	c #38353A",
"K 	c #5424A1",
"L 	c #5D22B5",
"M 	c #6622C3",
"N 	c #6825C9",
"O 	c #6E2BCD",
"P 	c #7632D0",
"Q 	c #7C3AD1",
"R 	c #7B38D0",
"S 	c #7F37D4",
"T 	c #8138D7",
"U 	c #8037D6",
"V 	c #7C37D3",
"W 	c #7936D0",
"X 	c #7835D2",
"Y 	c #7430D0",
"Z 	c #6E2CCE",
"` 	c #6723C4",
" .	c #5D22B6",
"..	c #5624A6",
"+.	c #363338",
"@.	c #511FA0",
"#.	c #5B1EAF",
"$.	c #631DC2",
"%.	c #651ECA",
"&.	c #6920CE",
"*.	c #7025D3",
"=.	c #762BD2",
"-.	c #792ED2",
";.	c #7B31D1",
">.	c #00FFDC",
",.	c #7428D2",
"'.	c #7226D1",
").	c #6F24D1",
"!.	c #6C23D0",
"~.	c #6A21CE",
"{.	c #671FCC",
"].	c #641CC3",
"^.	c #5D1EB4",
"/.	c #511FA2",
"(.	c #521D9F",
"_.	c #5619AB",
":.	c #5C19BC",
"<.	c #6419C9",
"[.	c #6B1ACF",
"}.	c #6E1BD1",
"|.	c #701CD3",
"1.	c #6E1DD1",
"2.	c #6C1CD1",
"3.	c #6A1BCF",
"4.	c #6319CA",
"5.	c #5C19BE",
"6.	c #5619B1",
"7.	c #501DA1",
"8.	c #322E34",
"9.	c #4E1A9B",
"0.	c #5118A7",
"a.	c #5818B6",
"b.	c #5C16C5",
"c.	c #6315CA",
"d.	c #6516CC",
"e.	c #6616CD",
"f.	c #6716CD",
"g.	c #6615CC",
"h.	c #6315C8",
"i.	c #5316B8",
"j.	c #5218AB",
"k.	c #5019A1",
"l.	c #1D1721",
"m.	c #49159B",
"n.	c #5313A8",
"o.	c #5313B2",
"p.	c #5B12BF",
"q.	c #6013C5",
"r.	c #6113C6",
"s.	c #6314CA",
"t.	c #6113C8",
"u.	c #5913C1",
"v.	c #5813B5",
"w.	c #5414A7",
"x.	c #4B159D",
"y.	c #110616",
"z.	c #440D97",
"A.	c #4E0DA7",
"B.	c #550DB4",
"C.	c #5B0DBA",
"D.	c #610BC3",
"E.	c #630BC4",
"F.	c #680CCA",
"G.	c #650BC6",
"H.	c #610DBD",
"I.	c #4C0DA7",
"J.	c #470D9D",
"K.	c #100516",
"L.	c #470B95",
"M.	c #4F0AA1",
"N.	c #5B0AAF",
"O.	c #5B07B7",
"P.	c #5D07B9",
"Q.	c #5E07BB",
"R.	c #600ABD",
"S.	c #690BC5",
"T.	c #6808C4",
"U.	c #6507C0",
"V.	c #6307BB",
"W.	c #5D0AB2",
"X.	c #510AA5",
"Y.	c #4C0B9A",
"Z.	c #470A91",
"`.	c #4F0A9F",
" +	c #540AAA",
".+	c #5908B0",
"++	c #5B07B3",
"@+	c #5C07B4",
"#+	c #5F0AB7",
"$+	c #640BBD",
"%+	c #6208BB",
"&+	c #5F07B8",
"*+	c #5B07B4",
"=+	c #5807AD",
"-+	c #4A0A94",
";+	c #420B8A",
">+	c #4C0B98",
",+	c #500AA3",
"'+	c #5607AB",
")+	c #5807AE",
"!+	c #5907AF",
"~+	c #5B07B2",
"{+	c #5E07B6",
"]+	c #6107B9",
"^+	c #6406BB",
"/+	c #6306BA",
"(+	c #6206B8",
"_+	c #6006B7",
":+	c #5E07B4",
"<+	c #5B07B1",
"[+	c #530AA7",
"}+	c #4D0B9D",
"|+	c #450B91",
"1+	c #400B87",
"2+	c #480B91",
"3+	c #5208A8",
"4+	c #5D07B3",
"5+	c #6007B7",
"6+	c #6206BA",
"7+	c #6506BD",
"8+	c #6606BF",
"9+	c #6706C0",
"0+	c #6406BD",
"a+	c #6107BB",
"b+	c #5F07B7",
"c+	c #5C07B3",
"d+	c #5708AB",
"e+	c #410B89",
"f+	c #3D0B81",
"g+	c #4B0B95",
"h+	c #5308AB",
"i+	c #5807B2",
"j+	c #5C07B6",
"k+	c #6407BD",
"l+	c #6806C3",
"m+	c #6906C5",
"n+	c #6806C4",
"o+	c #6507BE",
"p+	c #150E15",
"q+	c #370B7E",
"r+	c #5407AC",
"s+	c #5E07B8",
"t+	c #5F07BE",
"u+	c #5C07B2",
"v+	c #4D0A9E",
"w+	c #171215",
"x+	c #3B0C79",
"y+	c #390B81",
"z+	c #470B93",
"A+	c #510AA4",
"B+	c #5607B4",
"C+	c #430B8C",
"D+	c #3C0B7D",
"E+	c #370D73",
"F+	c #450B8F",
"G+	c #460B98",
"H+	c #5407AD",
"I+	c #3B0B82",
"J+	c #170E19",
"K+	c #15041E",
"L+	c #15041F",
"M+	c #DCFF00",
". . . . . . . . . . . . . . . . . . . . . . . . ",
"+ + + + + + + + + + + + + + + + + + + + + + + + ",
"@ @ @ @ @ @ @ @ @ @ @ @ @ @ @ @ @ @ @ @ @ @ @ @ ",
"# # # # # # # # # # # # # # # # # # # # # # # # ",
"$ $ % & * = - ; > , ' ) ) ! , ~ ; - { ] ^ / $ $ ",
"( ( _ : < [ } | 1 2 3 4 4 3 5 6 7 8 9 0 a b ( ( ",
"c c d e f g h i j k l m m l k j i n g o p q c c ",
"r r s t u v w x y z A B A A C y D E F G H I r r ",
"J J K L M N O P Q R S T U V W X Y Z N `  ...J J ",
"+.+.@.#.$.%.&.*.=.-.;.>.>.,.'.).!.~.{.].^./.+.+.",
"+.+.(._.:.<.[.}.|.>.>.>.>.>.>.1.2.3.4.5.6.7.+.+.",
"8.8.9.0.a.b.c.d.e.>.>.>.>.>.>.f.f.g.h.i.j.k.8.8.",
"l.l.m.n.o.p.q.r.>.>.>.>.>.>.>.>.s.t.u.v.w.x.l.l.",
"y.y.z.A.B.C.D.E.>.>.>.>.>.>.>.>.F.G.H.B.I.J.y.y.",
"K.K.L.M.N.O.P.Q.R.>.>.>.>.>.>.S.T.U.V.W.X.Y.K.K.",
"K.K.Z.`. +.+++@+#+>.>.>.>.>.>.$+%+&+*+=+`.-+K.K.",
"K.K.;+>+,+'+)+!+~+{+]+>.>.^+/+(+_+:+<+[+}+|+K.K.",
"K.K.1+2+}+3+!+4+5+6+7+8+9+8+0+a+b+c+d+M.L.e+K.K.",
"K.K.f+e+g+M.h+i+j+k+l+m+m+n+o+]+@+=+,+}+2+1+K.K.",
"p+p+q+1+|+Y.,+r+i+j+s+t+t+]+j+u+=+X.v+L.e+f+p+p+",
"w+w+x+y+e+z+}+A+h+=+u+@+B+u+u+r+A+v+L.C+1+D+w+w+",
"w+w+E+D+1+F+G+v+A+d+H+H+H+H+d+A+M.Y.|+e+I+x+w+w+",
"J+J+J+J+J+J+J+J+J+J+J+J+J+J+J+J+J+J+J+J+J+J+J+J+",
"K+K+K+K+K+K+K+K+K+K+K+K+K+K+K+K+K+K+K+K+K+K+K+K+",
"L+L+L+L+L+L+L+L+L+L+L+L+L+L+L+L+L+L+L+L+L+L+L+L+",
"M+M+M+M+M+M+M+M+M+M+M+M+M+M+M+M+M+M+M+M+M+M+M+M+"};
