/* XPM */
static char * stick_pressed_xpm[] = {
"24 26 68 1",
" 	c None",
".	c #535154",
"+	c #49474B",
"@	c #464448",
"#	c #454246",
"$	c #413F43",
"%	c #545356",
"&	c #3F3D41",
"*	c #504E51",
"=	c #3D3B3F",
"-	c #3B383C",
";	c #38353A",
">	c #444145",
",	c #363338",
"'	c #434044",
")	c #00FFDC",
"!	c #322E34",
"~	c #353237",
"{	c #343137",
"]	c #1D1721",
"^	c #27232A",
"/	c #242027",
"(	c #241F27",
"_	c #231E26",
":	c #221E26",
"<	c #110616",
"[	c #1C1620",
"}	c #1B151F",
"|	c #1A131E",
"1	c #100516",
"2	c #170F1B",
"3	c #18101C",
"4	c #19111D",
"5	c #160E1B",
"6	c #160F1B",
"7	c #170F1C",
"8	c #18111B",
"9	c #18121B",
"0	c #18131B",
"a	c #18141B",
"b	c #18151B",
"c	c #19151C",
"d	c #19161C",
"e	c #1C181F",
"f	c #19121C",
"g	c #19161B",
"h	c #19171B",
"i	c #1A171B",
"j	c #18171A",
"k	c #19181B",
"l	c #1A181B",
"m	c #19171A",
"n	c #19161A",
"o	c #18151A",
"p	c #171419",
"q	c #171319",
"r	c #18141A",
"s	c #1B1A1B",
"t	c #1B1A1C",
"u	c #1C191C",
"v	c #150E15",
"w	c #1E171F",
"x	c #171215",
"y	c #6F1497",
"z	c #170E19",
"A	c #15041E",
"B	c #15041F",
"C	c #DCFF00",
"........................",
"++++++++++++++++++++++++",
"@@@@@@@@@@@@@@@@@@@@@@@@",
"########################",
"$$%%%%%%%%%%%%%%%%%%%%$$",
"&&********************&&",
"==++++++++++++++++++++==",
"--@@@@@@@@@@@@@@@@@@@@--",
";;>>>>>>>>>>>>>>>>>>>>;;",
",,'''''''''))''''''''',,",
",,&&&&&&&))))))&&&&&&&,,",
"!!~~~~~~~))~{))~~~~~~~!!",
"]]^^^^^^))/(_:))^^^^^^]]",
"<<[[[[[[))[}}[))|[[[[[<<",
"112222333))44))333222211",
"115555662))))))775555511",
"11890aabcde))ffff8888811",
"11ghihjklmmnopqprogggg11",
"11ssssstuutsssssssssss11",
"vvwwwwwwwwwwwwwwwwwwwwvv",
"xxwwwwwwwwwwwwwwwwwwwwxx",
"xxyyyyyyyyyyyyyyyyyyyyxx",
"zzzzzzzzzzzzzzzzzzzzzzzz",
"AAAAAAAAAAAAAAAAAAAAAAAA",
"BBBBBBBBBBBBBBBBBBBBBBBB",
"CCCCCCCCCCCCCCCCCCCCCCCC"};
