/* XPM */
static char * stick_prelight_xpm[] = {
"24 26 274 2",
"  	c None",
". 	c #535154",
"+ 	c #49474B",
"@ 	c #464448",
"# 	c #454246",
"$ 	c #413F43",
"% 	c #6F46A2",
"& 	c #744AAF",
"* 	c #764FB3",
"= 	c #7E50BA",
"- 	c #824DC8",
"; 	c #874ED4",
"> 	c #8B4EE0",
", 	c #8E4FE8",
"' 	c #8B4EE8",
") 	c #8A4EE8",
"! 	c #8A4DE8",
"~ 	c #8B4DDF",
"{ 	c #8354C2",
"] 	c #7B51B5",
"^ 	c #764BB1",
"/ 	c #7347A5",
"( 	c #3F3D41",
"_ 	c #6333A8",
": 	c #6734B4",
"< 	c #6E3ABC",
"[ 	c #7341BA",
"} 	c #7B44C4",
"| 	c #7D44D1",
"1 	c #8143DC",
"2 	c #8644E5",
"3 	c #8343E8",
"4 	c #8344E8",
"5 	c #8944E5",
"6 	c #8543DC",
"7 	c #7F44D0",
"8 	c #7D45C7",
"9 	c #7343B9",
"0 	c #7039BE",
"a 	c #6735B6",
"b 	c #6833AE",
"c 	c #3D3B3F",
"d 	c #602EA6",
"e 	c #662EB6",
"f 	c #6B31C0",
"g 	c #7036C5",
"h 	c #733EBF",
"i 	c #7941CC",
"j 	c #7D40D5",
"k 	c #8340DE",
"l 	c #823DE5",
"m 	c #8540E7",
"n 	c #773EC9",
"o 	c #6D34C0",
"p 	c #642FB9",
"q 	c #5D2DA9",
"r 	c #3B383C",
"s 	c #5727A4",
"t 	c #5F25B7",
"u 	c #682AC2",
"v 	c #6D2EC7",
"w 	c #7233CC",
"x 	c #793BC9",
"y 	c #7C3BCF",
"z 	c #7E3AD7",
"A 	c #8439DE",
"B 	c #8039DE",
"C 	c #7F39D9",
"D 	c #7B3CCC",
"E 	c #7335CC",
"F 	c #6E2EC9",
"G 	c #6728C3",
"H 	c #5E25BD",
"I 	c #5827A8",
"J 	c #38353A",
"K 	c #5424A1",
"L 	c #5D22B5",
"M 	c #6622C3",
"N 	c #6825C9",
"O 	c #6E2BCD",
"P 	c #7632D0",
"Q 	c #7C3AD1",
"R 	c #7B38D0",
"S 	c #7F37D4",
"T 	c #8138D7",
"U 	c #8037D6",
"V 	c #7C37D3",
"W 	c #7936D0",
"X 	c #7835D2",
"Y 	c #7430D0",
"Z 	c #6E2CCE",
"` 	c #6723C4",
" .	c #5D22B6",
"..	c #5624A6",
"+.	c #363338",
"@.	c #511FA0",
"#.	c #5B1EAF",
"$.	c #631DC2",
"%.	c #651ECA",
"&.	c #6920CE",
"*.	c #7025D3",
"=.	c #762BD2",
"-.	c #792ED2",
";.	c #7B31D1",
">.	c #00FFDC",
",.	c #7428D2",
"'.	c #7226D1",
").	c #6F24D1",
"!.	c #6C23D0",
"~.	c #6A21CE",
"{.	c #671FCC",
"].	c #641CC3",
"^.	c #5D1EB4",
"/.	c #511FA2",
"(.	c #521D9F",
"_.	c #5619AB",
":.	c #5C19BC",
"<.	c #6419C9",
"[.	c #6B1ACF",
"}.	c #6E1BD1",
"|.	c #701CD3",
"1.	c #6E1DD1",
"2.	c #6C1CD1",
"3.	c #6A1BCF",
"4.	c #6319CA",
"5.	c #5C19BE",
"6.	c #5619B1",
"7.	c #501DA1",
"8.	c #322E34",
"9.	c #4E1A9B",
"0.	c #5118A7",
"a.	c #5818B6",
"b.	c #5C16C5",
"c.	c #6315CA",
"d.	c #6516CC",
"e.	c #6616CD",
"f.	c #6B1ECF",
"g.	c #6A1CCF",
"h.	c #6716CD",
"i.	c #6615CC",
"j.	c #6315C8",
"k.	c #5316B8",
"l.	c #5218AB",
"m.	c #5019A1",
"n.	c #1D1721",
"o.	c #49159B",
"p.	c #5313A8",
"q.	c #5313B2",
"r.	c #5B12BF",
"s.	c #6013C5",
"t.	c #6113C6",
"u.	c #6518C9",
"v.	c #671ACA",
"w.	c #671BCB",
"x.	c #661ACC",
"y.	c #6314CA",
"z.	c #6113C8",
"A.	c #5913C1",
"B.	c #5813B5",
"C.	c #5414A7",
"D.	c #4B159D",
"E.	c #110616",
"F.	c #440D97",
"G.	c #4E0DA7",
"H.	c #550DB4",
"I.	c #5B0DBA",
"J.	c #610BC3",
"K.	c #630BC4",
"L.	c #6712C7",
"M.	c #6914C8",
"N.	c #6A15C9",
"O.	c #6B13CA",
"P.	c #680CCA",
"Q.	c #650BC6",
"R.	c #610DBD",
"S.	c #4C0DA7",
"T.	c #470D9D",
"U.	c #100516",
"V.	c #470B95",
"W.	c #4F0AA1",
"X.	c #5B0AAF",
"Y.	c #5B07B7",
"Z.	c #5D07B9",
"`.	c #5E07BB",
" +	c #600ABD",
".+	c #6713C2",
"++	c #6913C4",
"@+	c #690BC5",
"#+	c #6808C4",
"$+	c #6507C0",
"%+	c #6307BB",
"&+	c #5D0AB2",
"*+	c #510AA5",
"=+	c #4C0B9A",
"-+	c #470A91",
";+	c #4F0A9F",
">+	c #540AAA",
",+	c #5908B0",
"'+	c #5B07B3",
")+	c #5C07B4",
"!+	c #5F0AB7",
"~+	c #640BBD",
"{+	c #6208BB",
"]+	c #5F07B8",
"^+	c #5B07B4",
"/+	c #5807AD",
"(+	c #4A0A94",
"_+	c #420B8A",
":+	c #4C0B98",
"<+	c #500AA3",
"[+	c #5607AB",
"}+	c #5807AE",
"|+	c #5907AF",
"1+	c #5B07B2",
"2+	c #5E07B6",
"3+	c #6107B9",
"4+	c #6406BB",
"5+	c #6306BA",
"6+	c #6206B8",
"7+	c #6006B7",
"8+	c #5E07B4",
"9+	c #5B07B1",
"0+	c #530AA7",
"a+	c #4D0B9D",
"b+	c #450B91",
"c+	c #400B87",
"d+	c #480B91",
"e+	c #5208A8",
"f+	c #5D07B3",
"g+	c #6007B7",
"h+	c #6206BA",
"i+	c #6506BD",
"j+	c #6606BF",
"k+	c #6706C0",
"l+	c #6406BD",
"m+	c #6107BB",
"n+	c #5F07B7",
"o+	c #5C07B3",
"p+	c #5708AB",
"q+	c #410B89",
"r+	c #3D0B81",
"s+	c #4B0B95",
"t+	c #5308AB",
"u+	c #5807B2",
"v+	c #5C07B6",
"w+	c #6407BD",
"x+	c #6806C3",
"y+	c #6906C5",
"z+	c #6806C4",
"A+	c #6507BE",
"B+	c #150E15",
"C+	c #370B7E",
"D+	c #5407AC",
"E+	c #5E07B8",
"F+	c #5F07BE",
"G+	c #5C07B2",
"H+	c #4D0A9E",
"I+	c #171215",
"J+	c #3B0C79",
"K+	c #390B81",
"L+	c #470B93",
"M+	c #510AA4",
"N+	c #5607B4",
"O+	c #430B8C",
"P+	c #3C0B7D",
"Q+	c #370D73",
"R+	c #450B8F",
"S+	c #460B98",
"T+	c #5407AD",
"U+	c #3B0B82",
"V+	c #170E19",
"W+	c #15041E",
"X+	c #15041F",
"Y+	c #DCFF00",
". . . . . . . . . . . . . . . . . . . . . . . . ",
"+ + + + + + + + + + + + + + + + + + + + + + + + ",
"@ @ @ @ @ @ @ @ @ @ @ @ @ @ @ @ @ @ @ @ @ @ @ @ ",
"# # # # # # # # # # # # # # # # # # # # # # # # ",
"$ $ % & * = - ; > , ' ) ) ! , ~ ; - { ] ^ / $ $ ",
"( ( _ : < [ } | 1 2 3 4 4 3 5 6 7 8 9 0 a b ( ( ",
"c c d e f g h i j k l m m l k j i n g o p q c c ",
"r r s t u v w x y z A B A A C y D E F G H I r r ",
"J J K L M N O P Q R S T U V W X Y Z N `  ...J J ",
"+.+.@.#.$.%.&.*.=.-.;.>.>.,.'.).!.~.{.].^./.+.+.",
"+.+.(._.:.<.[.}.|.>.>.>.>.>.>.1.2.3.4.5.6.7.+.+.",
"8.8.9.0.a.b.c.d.e.>.>.f.g.>.>.h.h.i.j.k.l.m.8.8.",
"n.n.o.p.q.r.s.t.>.>.u.v.w.x.>.>.y.z.A.B.C.D.n.n.",
"E.E.F.G.H.I.J.K.>.>.L.M.N.O.>.>.P.Q.R.H.S.T.E.E.",
"U.U.V.W.X.Y.Z.`. +>.>..+++>.>.@+#+$+%+&+*+=+U.U.",
"U.U.-+;+>+,+'+)+!+>.>.>.>.>.>.~+{+]+^+/+;+(+U.U.",
"U.U._+:+<+[+}+|+1+2+3+>.>.4+5+6+7+8+9+0+a+b+U.U.",
"U.U.c+d+a+e+|+f+g+h+i+j+k+j+l+m+n+o+p+W.V.q+U.U.",
"U.U.r+q+s+W.t+u+v+w+x+y+y+z+A+3+)+/+<+a+d+c+U.U.",
"B+B+C+c+b+=+<+D+u+v+E+F+F+3+v+G+/+*+H+V.q+r+B+B+",
"I+I+J+K+q+L+a+M+t+/+G+)+N+G+G+D+M+H+V.O+c+P+I+I+",
"I+I+Q+P+c+R+S+H+M+p+T+T+T+T+p+M+W.=+b+q+U+J+I+I+",
"V+V+V+V+V+V+V+V+V+V+V+V+V+V+V+V+V+V+V+V+V+V+V+V+",
"W+W+W+W+W+W+W+W+W+W+W+W+W+W+W+W+W+W+W+W+W+W+W+W+",
"X+X+X+X+X+X+X+X+X+X+X+X+X+X+X+X+X+X+X+X+X+X+X+X+",
"Y+Y+Y+Y+Y+Y+Y+Y+Y+Y+Y+Y+Y+Y+Y+Y+Y+Y+Y+Y+Y+Y+Y+Y+"};
