/* XPM */
static char * title_5_active_xpm[] = {
"4 26 20 1",
" 	c None",
".	c #525053",
"+	c #48464A",
"@	c #464347",
"#	c #444145",
"$	c #403E42",
"%	c #3E3C40",
"&	c #3C3A3E",
"*	c #3A373B",
"=	c #373439",
"-	c #353237",
";	c #312D33",
">	c #1D1620",
",	c #100516",
"'	c #100415",
")	c #110616",
"!	c #140B19",
"~	c #150C1A",
"{	c #160420",
"]	c #DCFF00",
"....",
"++++",
"@@@@",
"####",
"$$$$",
"%%%%",
"&&&&",
"****",
"====",
"----",
"----",
";;;;",
">>>>",
",,,,",
"''''",
"''''",
"''''",
"''''",
"''''",
"))))",
"!!!!",
"!!!!",
"~~~~",
"{{{{",
"{{{{",
"]]]]"};
