/* XPM */
static char * title_3_inactive_xpm[] = {
"4 26 22 1",
" 	c None",
".	c #535154",
"+	c #48464A",
"@	c #464347",
"#	c #444145",
"$	c #403E42",
"%	c #3E3C40",
"&	c #3B393D",
"*	c #3A373B",
"=	c #38353A",
"-	c #343136",
";	c #353237",
">	c #312D33",
",	c #1D1620",
"'	c #100516",
")	c #100415",
"!	c #110616",
"~	c #140A18",
"{	c #150C19",
"]	c #160D1A",
"^	c #160420",
"/	c #00FFDC",
"....",
"++++",
"@@@@",
"####",
"$$$$",
"%%%%",
"&&&&",
"****",
"====",
"----",
";;;;",
">>>>",
",,,,",
"''''",
"))))",
"))))",
"))))",
"))))",
"!!!!",
"!!!!",
"~~~~",
"{{{{",
"]]]]",
"^^^^",
"^^^^",
"////"};
