/* XPM */
static char * title_2_active_xpm[] = {
"4 26 20 1",
" 	c None",
".	c #514F52",
"+	c #464347",
"@	c #464448",
"#	c #444145",
"$	c #3F3D41",
"%	c #3C3A3E",
"&	c #39363B",
"*	c #38353A",
"=	c #353237",
"-	c #333035",
";	c #363338",
">	c #201A23",
",	c #100415",
"'	c #110616",
")	c #140A18",
"!	c #150C1A",
"~	c #180422",
"{	c #160420",
"]	c #DCFF00",
"....",
"++++",
"@@@@",
"####",
"$$$$",
"$$$$",
"%%%%",
"&&&&",
"****",
"====",
"----",
";;;;",
">>>>",
",,,,",
",,,,",
",,,,",
",,,,",
",,,,",
",,,,",
"''''",
"))))",
"))))",
"!!!!",
"~~~~",
"{{{{",
"]]]]"};
