/* XPM */
static char * title_4_active_xpm[] = {
"4 26 22 1",
" 	c None",
".	c #535154",
"+	c #48464A",
"@	c #464347",
"#	c #444145",
"$	c #413F43",
"%	c #3E3C40",
"&	c #3C3A3E",
"*	c #3A373B",
"=	c #38353A",
"-	c #353237",
";	c #322E34",
">	c #1D1721",
",	c #100516",
"'	c #100415",
")	c #110616",
"!	c #120717",
"~	c #120817",
"{	c #150C19",
"]	c #17041E",
"^	c #160420",
"/	c #DCFF00",
"....",
"++++",
"@@@@",
"####",
"$$$$",
"%%%%",
"&&&&",
"****",
"====",
"----",
"----",
";;;;",
">>>>",
",,,,",
"''''",
",,,,",
",,,,",
"))))",
"!!!!",
"!!!!",
"~~~~",
"{{{{",
"{{{{",
"]]]]",
"^^^^",
"////"};
