/* XPM */
static char * top_right_active_xpm[] = {
"6 42 19 1",
" 	c None",
".	c #514F52",
"+	c #464347",
"@	c #464448",
"#	c #444145",
"$	c #3F3D41",
"%	c #3C3A3E",
"&	c #39363B",
"*	c #38353A",
"=	c #353237",
"-	c #333035",
";	c #363338",
">	c #201A23",
",	c #100415",
"'	c #12041B",
")	c #14041E",
"!	c #160C1C",
"~	c #DCFF00",
"{	c #0A0010",
"......",
"++++++",
"@@@@@@",
"######",
"$$$$$$",
"$$$$$$",
"%%%%%%",
"&&&&&&",
"******",
"======",
"------",
";;;;;;",
">>>>>>",
",,,,,,",
",,,,,,",
",,,,,,",
",,,,,,",
",,,,,,",
",,,,,,",
"''''''",
"))))))",
"))))))",
"))))))",
"))))))",
"!!!!!!",
"~~~~~~",
"{{{{{~",
"{{{{{~",
"{{{{{~",
"{{{{{~",
"{{{{{~",
"{{{{{~",
"{{{{{~",
"{{{{{~",
"{{{{{~",
"{{{{{~",
"{{{{{~",
"{{{{{~",
"{{{{{~",
"{{{{{~",
"{{{{{~",
"{{{{{~"};
